<?xml version="1.0" encoding="UTF-8" standalone="no"?>
<svg
   xmlns:dc="http://purl.org/dc/elements/1.1/"
   xmlns:cc="http://creativecommons.org/ns#"
   xmlns:rdf="http://www.w3.org/1999/02/22-rdf-syntax-ns#"
   xmlns:svg="http://www.w3.org/2000/svg"
   xmlns="http://www.w3.org/2000/svg"
   xmlns:sodipodi="http://sodipodi.sourceforge.net/DTD/sodipodi-0.dtd"
   xmlns:inkscape="http://www.inkscape.org/namespaces/inkscape"
   width="210mm"
   height="297mm"
   viewBox="0 0 210 297"
   version="1.1"
   id="svg8"
   inkscape:version="1.0.1 (1.0.1+r73)"
   sodipodi:docname="male.svg">
  <defs
     id="defs2">
    <clipPath
       clipPathUnits="userSpaceOnUse"
       id="clipPath905">
      <path
         d="m 1632.8,2326.84 -1050.968,637.35 1.512,2.07 c 70.504,-35.37 150.101,-55.28 234.351,-55.28 289.025,0 523.325,234.3 523.325,523.32 0,142.33 -56.8,271.37 -148.99,365.72 l 1.76,2.41 419.42,-263.12 c -6.91,-33.93 -10.53,-69.04 -10.53,-105.01 0,-136 51.87,-259.88 136.93,-352.94 v 0 0 c 57.14,-62.51 129.25,-111.12 210.65,-140.13 l 375.52,-227.74 -37.88,-64.26 c -50.98,16.57 -105.39,25.52 -161.89,25.52 -227.5,0 -421.1,-145.17 -493.21,-347.91"
         id="path903" />
    </clipPath>
    <linearGradient
       x1="0"
       y1="0"
       x2="1"
       y2="0"
       gradientUnits="userSpaceOnUse"
       gradientTransform="matrix(-1075.69,728.161,728.161,1075.69,1968.95,2683.56)"
       spreadMethod="pad"
       id="linearGradient911">
      <stop
         style="stop-opacity:1;stop-color:#ffffff"
         offset="0"
         id="stop907" />
      <stop
         style="stop-opacity:1;stop-color:#535051"
         offset="1"
         id="stop909" />
    </linearGradient>
    <clipPath
       clipPathUnits="userSpaceOnUse"
       id="clipPath921">
      <path
         d="m 2953.45,2332.84 -627.67,380.65 -375.52,227.74 c 54.93,-19.58 114.09,-30.25 175.75,-30.25 153.01,0 290.69,65.68 386.38,170.38 v 0 0 c 85.06,93.05 136.94,216.94 136.94,352.94 0,172.49 -83.47,325.51 -212.2,420.85 l 486.66,-305.3 c -8.38,-37.17 -12.8,-75.84 -12.8,-115.55 0,-219.97 135.73,-408.25 328.01,-485.65 l 313.42,-190.08 -65.93,-111.81 c -17.16,1.69 -34.57,2.56 -52.17,2.56 -215.55,0 -400.68,-130.33 -480.87,-316.48"
         id="path919" />
    </clipPath>
    <linearGradient
       x1="0"
       y1="0"
       x2="1"
       y2="0"
       gradientUnits="userSpaceOnUse"
       gradientTransform="matrix(-1075.69,728.161,728.161,1075.69,3203.39,2741.87)"
       spreadMethod="pad"
       id="linearGradient927">
      <stop
         style="stop-opacity:1;stop-color:#ffffff"
         offset="0"
         id="stop923" />
      <stop
         style="stop-opacity:1;stop-color:#535051"
         offset="1"
         id="stop925" />
    </linearGradient>
    <clipPath
       clipPathUnits="userSpaceOnUse"
       id="clipPath937">
      <path
         d="m 4251.99,2334.32 v 0 L 3552.42,2758.57 3239,2948.65 c 60.35,-24.3 126.27,-37.67 195.32,-37.67 289.02,0 523.32,234.3 523.32,523.32 0,159.35 -71.23,302.08 -183.57,398.06 l 477.92,-299.81 V 2334.32"
         id="path935" />
    </clipPath>
    <linearGradient
       x1="0"
       y1="0"
       x2="1"
       y2="0"
       gradientUnits="userSpaceOnUse"
       gradientTransform="matrix(-1075.69,728.161,728.161,1075.69,4484.62,2735.58)"
       spreadMethod="pad"
       id="linearGradient943">
      <stop
         style="stop-opacity:1;stop-color:#ffffff"
         offset="0"
         id="stop939" />
      <stop
         style="stop-opacity:1;stop-color:#535051"
         offset="1"
         id="stop941" />
    </linearGradient>
    <clipPath
       clipPathUnits="userSpaceOnUse"
       id="clipPath953">
      <path
         d="M 1644.45,1014.46 583.375,1657.95 c 70.492,-35.36 150.086,-55.27 234.32,-55.27 153.016,0 290.695,65.68 386.385,170.38 v 0 0 c 85.06,93.06 136.94,216.94 136.94,352.94 0,150.83 -63.82,286.77 -165.92,382.27 l 434.34,-272.48 c -4.45,-27.46 -6.76,-55.64 -6.76,-84.36 0,-151.3 64.2,-287.59 166.85,-383.14 v 0 0 0 c 2.88,-2.67 5.79,-5.32 8.72,-7.93 5.94,-5.29 12,-10.44 18.18,-15.45 l -7.94,-10.88 509.51,-308.99 -58.02,-98.41 c -35.93,7.79 -73.21,11.89 -111.47,11.89 -218.47,0 -405.67,-133.88 -484.06,-324.06"
         id="path951" />
    </clipPath>
    <linearGradient
       x1="0"
       y1="0"
       x2="1"
       y2="0"
       gradientUnits="userSpaceOnUse"
       gradientTransform="matrix(-1075.69,728.161,728.161,1075.69,1941.16,1395.11)"
       spreadMethod="pad"
       id="linearGradient959">
      <stop
         style="stop-opacity:1;stop-color:#ffffff"
         offset="0"
         id="stop955" />
      <stop
         style="stop-opacity:1;stop-color:#535051"
         offset="1"
         id="stop957" />
    </linearGradient>
    <clipPath
       clipPathUnits="userSpaceOnUse"
       id="clipPath969">
      <path
         d="m 2954.49,1026.92 -656.49,398.12 -509.51,308.99 7.94,10.88 c 73.74,-59.85 164.08,-100.05 263.04,-112.61 v 0 c 21.79,-2.76 43.99,-4.19 66.54,-4.19 22.54,0 44.74,1.43 66.53,4.19 v 0 c 107.25,13.61 204.37,59.68 281.21,128.05 2.93,2.61 5.84,5.26 8.71,7.93 v 0 0 c 102.66,95.55 166.87,231.85 166.87,383.15 0,133.4 -49.93,255.16 -132.1,347.58 l 407.04,-255.34 c -8.69,-37.82 -13.28,-77.22 -13.28,-117.67 0,-165.02 76.4,-312.22 195.74,-408.13 l -0.47,-0.69 5.71,-3.47 c 32.61,-25.53 68.32,-47.27 106.48,-64.57 l 303.3,-183.94 -73.33,-124.36 c -4.68,0.12 -9.39,0.18 -14.1,0.18 -214.64,0 -399.1,-129.22 -479.83,-314.1"
         id="path967" />
    </clipPath>
    <linearGradient
       x1="0"
       y1="0"
       x2="1"
       y2="0"
       gradientUnits="userSpaceOnUse"
       gradientTransform="matrix(-1075.69,728.157,728.157,1075.69,3175.62,1453.41)"
       spreadMethod="pad"
       id="linearGradient975">
      <stop
         style="stop-opacity:1;stop-color:#ffffff"
         offset="0"
         id="stop971" />
      <stop
         style="stop-opacity:1;stop-color:#535051"
         offset="1"
         id="stop973" />
    </linearGradient>
    <clipPath
       clipPathUnits="userSpaceOnUse"
       id="clipPath985">
      <path
         d="m 4251.99,1022.35 v 0 l -730.24,442.85 -303.3,183.94 c 65.81,-29.84 138.9,-46.46 215.87,-46.46 289.02,0 523.32,234.3 523.32,523.32 0,151.61 -64.46,288.15 -167.48,383.72 l 461.83,-289.71 V 1022.35 m -1140.02,691.36 -5.71,3.47 0.47,0.69 c 1.74,-1.4 3.49,-2.79 5.24,-4.16"
         id="path983" />
    </clipPath>
    <linearGradient
       x1="0"
       y1="0"
       x2="1"
       y2="0"
       gradientUnits="userSpaceOnUse"
       gradientTransform="matrix(-1054.25,713.644,713.644,1054.25,4462.94,1438.01)"
       spreadMethod="pad"
       id="linearGradient991">
      <stop
         style="stop-opacity:1;stop-color:#ffffff"
         offset="0"
         id="stop987" />
      <stop
         style="stop-opacity:1;stop-color:#535051"
         offset="1"
         id="stop989" />
    </linearGradient>
    <clipPath
       clipPathUnits="userSpaceOnUse"
       id="clipPath1001">
      <path
         d="M 2209.16,0.0117188 H 1154.73 L 537.922,374.07 l 0.637,0.871 c 80.789,-51.043 176.504,-80.582 279.136,-80.582 153.016,0 290.705,65.692 386.395,170.379 v 0 0 c 85.05,93.063 136.93,216.934 136.93,352.942 0,145.679 -59.51,277.44 -155.56,372.32 L 1615.7,920.102 c -6.9,-33.903 -10.52,-68.981 -10.52,-104.922 0,-228.641 146.64,-423.032 350.99,-494.282 L 2281.89,123.371 2209.16,0.0117188"
         id="path999" />
    </clipPath>
    <linearGradient
       x1="0"
       y1="0"
       x2="1"
       y2="0"
       gradientUnits="userSpaceOnUse"
       gradientTransform="matrix(-1075.71,728.17,728.17,1075.71,1925.07,93.4401)"
       spreadMethod="pad"
       id="linearGradient1007">
      <stop
         style="stop-opacity:1;stop-color:#ffffff"
         offset="0"
         id="stop1003" />
      <stop
         style="stop-opacity:1;stop-color:#535051"
         offset="1"
         id="stop1005" />
    </linearGradient>
    <clipPath
       clipPathUnits="userSpaceOnUse"
       id="clipPath1017">
      <path
         d="m 3409.21,0.0117188 h -923.9 L 2281.89,123.371 1956.17,320.898 c 53.97,-18.808 111.95,-29.039 172.34,-29.039 289.02,0 523.32,234.301 523.32,523.321 0,172.07 -83.06,324.76 -211.25,420.15 l 483,-303.01 c -8.24,-36.89 -12.59,-75.261 -12.59,-114.64 0,-136.008 51.87,-259.879 136.93,-352.942 v 0 0 c 18.03,-19.726 37.57,-38.09 58.41,-54.867 l -0.07,-0.121 0.89,-0.539 c 34.89,-27.981 73.44,-51.582 114.83,-69.981 L 3506.86,165.621 3409.21,0.0117188"
         id="path1015" />
    </clipPath>
    <linearGradient
       x1="0"
       y1="0"
       x2="1"
       y2="0"
       gradientUnits="userSpaceOnUse"
       gradientTransform="matrix(-1075.69,728.161,728.161,1075.69,3159.49,151.75)"
       spreadMethod="pad"
       id="linearGradient1023">
      <stop
         style="stop-opacity:1;stop-color:#ffffff"
         offset="0"
         id="stop1019" />
      <stop
         style="stop-opacity:1;stop-color:#535051"
         offset="1"
         id="stop1021" />
    </linearGradient>
    <clipPath
       clipPathUnits="userSpaceOnUse"
       id="clipPath1033">
      <path
         d="M 4251.99,0.0117188 H 3778.62 L 3506.86,165.621 3221.98,339.23 c 64.89,-28.839 136.75,-44.871 212.34,-44.871 153.01,0 290.69,65.68 386.38,170.379 v 0 0 c 85.06,93.051 136.94,216.934 136.94,352.942 0,146.332 -60.06,278.64 -156.87,373.62 L 4251.99,908.23 V 0.0117188 M 3107.15,409.211 l -0.89,0.539 0.07,0.121 c 0.27,-0.223 0.55,-0.441 0.82,-0.66"
         id="path1031" />
    </clipPath>
    <linearGradient
       x1="0"
       y1="0"
       x2="1"
       y2="0"
       gradientUnits="userSpaceOnUse"
       gradientTransform="matrix(-1051.33,711.668,711.668,1051.33,4448.92,137.91)"
       spreadMethod="pad"
       id="linearGradient1039">
      <stop
         style="stop-opacity:1;stop-color:#ffffff"
         offset="0"
         id="stop1035" />
      <stop
         style="stop-opacity:1;stop-color:#535051"
         offset="1"
         id="stop1037" />
    </linearGradient>
    <clipPath
       clipPathUnits="userSpaceOnUse"
       id="clipPath1067">
      <path
         d="m 1341.02,2126 c 0,-289.02 -234.3,-523.32 -523.325,-523.32 -289.023,0 -523.332,234.3 -523.332,523.32 0,289.03 234.309,523.32 523.332,523.32 289.025,0 523.325,-234.29 523.325,-523.32"
         id="path1065" />
    </clipPath>
    <clipPath
       clipPathUnits="userSpaceOnUse"
       id="clipPath1133">
      <path
         d="m 3957.64,817.68 c 0,-289.02 -234.3,-523.321 -523.32,-523.321 -289.03,0 -523.33,234.301 -523.33,523.321 0,289.03 234.3,523.34 523.33,523.34 289.02,0 523.32,-234.31 523.32,-523.34"
         id="path1131" />
    </clipPath>
    <clipPath
       clipPathUnits="userSpaceOnUse"
       id="clipPath1209">
      <path
         d="m 2651.83,815.18 c 0,-289.02 -234.3,-523.321 -523.32,-523.321 -289.03,0 -523.33,234.301 -523.33,523.321 0,289.03 234.3,523.34 523.33,523.34 289.02,0 523.32,-234.31 523.32,-523.34"
         id="path1207" />
    </clipPath>
    <clipPath
       clipPathUnits="userSpaceOnUse"
       id="clipPath1245">
      <path
         d="m 1341.02,817.68 c 0,-289.02 -234.3,-523.321 -523.325,-523.321 -289.023,0 -523.332,234.301 -523.332,523.321 0,289.03 234.309,523.34 523.332,523.34 289.025,0 523.325,-234.31 523.325,-523.34"
         id="path1243" />
    </clipPath>
    <clipPath
       clipPathUnits="userSpaceOnUse"
       id="clipPath1307">
      <path
         d="m 3957.64,3434.3 c 0,-289.02 -234.3,-523.32 -523.32,-523.32 -289.03,0 -523.33,234.3 -523.33,523.32 0,289.03 234.3,523.34 523.33,523.34 289.02,0 523.32,-234.31 523.32,-523.34"
         id="path1305" />
    </clipPath>
    <clipPath
       clipPathUnits="userSpaceOnUse"
       id="clipPath1333">
      <path
         d="m 3957.64,2126 c 0,-289.02 -234.3,-523.32 -523.32,-523.32 -289.03,0 -523.33,234.3 -523.33,523.32 0,289.03 234.3,523.32 523.33,523.32 289.02,0 523.32,-234.29 523.32,-523.32"
         id="path1331" />
    </clipPath>
    <clipPath
       clipPathUnits="userSpaceOnUse"
       id="clipPath1367">
      <path
         d="m 2649.33,3434.3 c 0,-289.02 -234.3,-523.32 -523.32,-523.32 -289.03,0 -523.33,234.3 -523.33,523.32 0,289.03 234.3,523.34 523.33,523.34 289.02,0 523.32,-234.31 523.32,-523.34"
         id="path1365" />
    </clipPath>
    <clipPath
       clipPathUnits="userSpaceOnUse"
       id="clipPath1437">
      <path
         d="m 2649.33,2151.43 c 0,-289.02 -234.3,-523.32 -523.32,-523.32 -289.03,0 -523.33,234.3 -523.33,523.32 0,289.03 234.3,523.32 523.33,523.32 289.02,0 523.32,-234.29 523.32,-523.32"
         id="path1435" />
    </clipPath>
    <clipPath
       clipPathUnits="userSpaceOnUse"
       id="clipPath1471">
      <path
         d="m 1341.02,3434.3 c 0,-289.02 -234.3,-523.32 -523.325,-523.32 -289.023,0 -523.332,234.3 -523.332,523.32 0,289.03 234.309,523.34 523.332,523.34 289.025,0 523.325,-234.31 523.325,-523.34"
         id="path1469" />
    </clipPath>
  </defs>
  <sodipodi:namedview
     id="base"
     pagecolor="#ffffff"
     bordercolor="#666666"
     borderopacity="1.0"
     inkscape:pageopacity="0.0"
     inkscape:pageshadow="2"
     inkscape:zoom="0.35"
     inkscape:cx="400"
     inkscape:cy="560"
     inkscape:document-units="mm"
     inkscape:current-layer="layer1"
     inkscape:document-rotation="0"
     showgrid="false"
     inkscape:window-width="1299"
     inkscape:window-height="713"
     inkscape:window-x="67"
     inkscape:window-y="27"
     inkscape:window-maximized="1" />
  <metadata
     id="metadata5">
    <rdf:RDF>
      <cc:Work
         rdf:about="">
        <dc:format>image/svg+xml</dc:format>
        <dc:type
           rdf:resource="http://purl.org/dc/dcmitype/StillImage" />
        <dc:title />
      </cc:Work>
    </rdf:RDF>
  </metadata>
  <g
     inkscape:label="Layer 1"
     inkscape:groupmode="layer"
     id="layer1">
    <g
       id="g1063"
       clip-path="url(#clipPath1067)"
       transform="matrix(0.26532288,0,0,-0.33411699,-111.51386,831.98294)">
      <path
         d="m 732.969,1870.63 h 168.84 v 88.8203 h -168.84 z"
         style="fill:#ecae93;fill-opacity:1;fill-rule:nonzero;stroke:none"
         id="path1069" />
      <path
         d="m 777.727,1891.29 -44.758,23.51 v 44.65 h 168.84 v -3.15 c -2.051,-3.25 -4.282,-6.28 -6.293,-8.96 -10.274,-13.6 -23.934,-25.28 -40.879,-35.1 -20.86,-12.1 -47.293,-20.05 -74.449,-20.88 -0.821,-0.03 -1.641,-0.05 -2.461,-0.07"
         style="fill:#c38f79;fill-opacity:1;fill-rule:nonzero;stroke:none"
         id="path1071" />
      <path
         d="m 817.445,2458.04 v 0.01 l -0.062,-0.01 -0.059,0.01 v -0.01 C 709.434,2455 627.102,2410.67 627.5,2257.83 c 0.227,-90.62 8.496,-117.36 34.898,-220.76 18.278,-71.55 115.473,-109.3 152.524,-111.75 l 2.461,0.22 2.461,-0.22 c 37.054,2.45 134.258,40.2 152.527,111.75 26.406,103.4 34.679,130.14 34.909,220.76 0.4,152.84 -81.948,197.17 -189.835,200.21"
         style="fill:#ecae93;fill-opacity:1;fill-rule:nonzero;stroke:none"
         id="path1073" />
      <path
         d="m 729.531,1956.55 c 32.41,-20.39 65.664,-29.94 85.059,-31.23 l 2.461,0.22 2.461,-0.22 c 19.394,1.29 55.254,12.24 87.656,32.64 0,0 -74.316,-35.47 -177.637,-1.41"
         style="fill:#7a411c;fill-opacity:1;fill-rule:nonzero;stroke:none"
         id="path1075" />
      <path
         d="m 986.633,2194.95 -11.789,-90.24 c 46.306,-20.4 53.546,85.82 53.546,85.82 -10.7,26.47 -41.757,4.42 -41.757,4.42"
         style="fill:#ecae93;fill-opacity:1;fill-rule:nonzero;stroke:none"
         id="path1077" />
      <path
         d="m 600.715,2190.53 c 0,0 7.246,-106.22 53.547,-85.82 l -11.782,90.24 c 0,0 -31.058,22.05 -41.765,-4.42"
         style="fill:#ecae93;fill-opacity:1;fill-rule:nonzero;stroke:none"
         id="path1079" />
      <path
         d="m 903.27,1870.63 228.05,-59.36 c 0,0 77.81,-11.93 97.66,-81.85 l 34.03,-126.74 H 819.637 815.742 372.371 l 34.039,126.74 c 19.852,69.92 97.66,81.85 97.66,81.85 l 227.383,59.36 H 903.27"
         style="fill:#ecae93;fill-opacity:1;fill-rule:nonzero;stroke:none"
         id="path1081" />
      <path
         d="m 372.371,1602.68 34.039,126.74 c 19.852,69.92 97.66,81.85 97.66,81.85 l 227.383,59.36 H 903.27 l 228.05,-59.36 c 0,0 77.81,-11.93 97.66,-81.85 l 34.03,-126.74 H 372.371"
         style="fill:#ffffff;fill-opacity:1;fill-rule:nonzero;stroke:none"
         id="path1083" />
      <path
         d="m 832.363,1870.63 h -29.336 l -41.757,-65.84 37.347,-42.04 h 18.817 0.519 18.824 l 37.344,42.04 -41.758,65.84"
         style="fill:#80212f;fill-opacity:1;fill-rule:nonzero;stroke:none"
         id="path1085" />
      <path
         d="m 836.777,1762.75 h -38.16 l -30.187,33.98 40.011,60.82 c -1.992,-31.44 8.563,-64.2 30.028,-86.78 0.91,-0.97 1.89,-1.91 2.886,-2.85 l -4.578,-5.17"
         style="fill:#611821;fill-opacity:1;fill-rule:nonzero;stroke:none"
         id="path1087" />
      <path
         d="m 963.813,1854.87 -0.172,0.05 -61.551,57.28 -0.281,-0.14 0.281,0.14 61.723,-57.33"
         style="fill:#11283b;fill-opacity:1;fill-rule:nonzero;stroke:none"
         id="path1089" />
      <path
         d="m 873.098,1783.4 -7.696,11.58 4.481,5.04 4.226,-5.42 95.145,55.1 -5.613,5.22 0.172,-0.05 11.031,-10.24 -101.746,-61.23"
         style="fill:#bdbcbd;fill-opacity:1;fill-rule:nonzero;stroke:none"
         id="path1091" />
      <path
         d="m 865.402,1794.98 -48.351,72.81 52.832,-67.77 -4.481,-5.04"
         style="fill:#611821;fill-opacity:1;fill-rule:nonzero;stroke:none"
         id="path1093" />
      <path
         d="m 902.09,1912.2 -85.039,-44.41 57.058,-73.19 95.145,55.1 -67.164,62.5"
         style="fill:#ffffff;fill-opacity:1;fill-rule:nonzero;stroke:none"
         id="path1095" />
      <path
         d="m 666.445,1853.66 66.075,61.38 0.449,-0.24 v -44.17 h 84.082 -85.598 l -65.008,-16.97"
         style="fill:#11283b;fill-opacity:1;fill-rule:nonzero;stroke:none"
         id="path1097" />
      <path
         d="m 817.051,1870.63 h -84.082 v 44.17 -21.8 c 12.25,-1.16 24.629,-1.8 36.906,-1.8 2.621,0 5.238,0.03 7.852,0.09 l 39.324,-20.66"
         style="fill:#af806c;fill-opacity:1;fill-rule:nonzero;stroke:none"
         id="path1099" />
      <path
         d="m 769.875,1891.2 c -12.277,0 -24.656,0.64 -36.906,1.8 v 21.8 l 44.758,-23.51 c -2.614,-0.06 -5.231,-0.09 -7.852,-0.09"
         style="fill:#926a59;fill-opacity:1;fill-rule:nonzero;stroke:none"
         id="path1101" />
      <path
         d="m 761.52,1786.23 -101.75,61.23 6.675,6.2 65.008,16.97 h 85.598 -14.024 l -41.757,-65.84 7.16,-8.06 -6.91,-10.5"
         style="fill:#bdbcbd;fill-opacity:1;fill-rule:nonzero;stroke:none"
         id="path1103" />
      <path
         d="m 761.27,1804.79 v 0 l 41.757,65.84 h 14.024 l -8.61,-13.08 c 0.282,4.4 0.805,8.77 1.579,13.08 h -6.993 l -41.757,-65.84"
         style="fill:#611821;fill-opacity:1;fill-rule:nonzero;stroke:none"
         id="path1105" />
      <path
         d="m 768.43,1796.73 -7.16,8.06 41.757,65.84 h 6.993 c -0.774,-4.31 -1.297,-8.68 -1.579,-13.08 l -40.011,-60.82"
         style="fill:#4b1117;fill-opacity:1;fill-rule:nonzero;stroke:none"
         id="path1107" />
      <path
         d="m 732.52,1915.04 85.039,-44.41 -57.063,-73.19 -95.144,55.09 67.168,62.51"
         style="fill:#ffffff;fill-opacity:1;fill-rule:nonzero;stroke:none"
         id="path1109" />
      <path
         d="M 666.445,1853.54 504.07,1811.27 c 0,0 -77.808,-11.93 -97.66,-81.85 l -34.039,-126.74 h 890.639 l -34.03,126.74 c -19.85,69.92 -97.66,81.85 -97.66,81.85 l -170.031,48.78 -144.238,-251.07 -150.606,244.56"
         style="fill:#111114;fill-opacity:1;fill-rule:nonzero;stroke:none"
         id="path1111" />
      <path
         d="m 797.961,1762.75 -20.324,-89.77 39.414,-64 36.777,64.04 -17.707,89.73 h -38.16"
         style="fill:#80212f;fill-opacity:1;fill-rule:nonzero;stroke:none"
         id="path1113" />
      <path
         d="m 666.445,1853.54 -76.925,-20.02 43.378,-16.83 -26.777,-30.46 155.149,-183.55 h 60.269 l -155.094,250.86"
         style="fill:#0b0a0b;fill-opacity:1;fill-rule:nonzero;stroke:none"
         id="path1115" />
      <path
         d="m 961.289,1860.05 84.621,-24.28 -43.37,-19.08 26.77,-30.46 -155.138,-183.55 h -60.277 l 147.394,257.37"
         style="fill:#0b0a0b;fill-opacity:1;fill-rule:nonzero;stroke:none"
         id="path1117" />
      <path
         d="m 986.77,2093.05 -14.016,-9.08 14.016,142.42 -23.165,49.24 c 0,0 21.297,109.58 -136.41,112.82 0,0 -132.593,7.36 -149.777,-52.8 0,0 -71.91,117.86 121.805,146.1 0,0 193.715,15.96 214.587,-101.9 0,0 15.28,-129.55 -10.19,-185.33 l -16.85,-101.47"
         style="fill:#7a411c;fill-opacity:1;fill-rule:nonzero;stroke:none"
         id="path1119" />
      <path
         d="m 619.34,2314.3 c 0,0 1.937,-47.87 10.66,-119.78 l 16.855,-101.47 14.012,-9.08 -14.012,142.42 24.059,56.83 4.734,46.11 1.77,6.32 v 78.11 c -56.109,-7.38 -58.078,-99.46 -58.078,-99.46"
         style="fill:#7a411c;fill-opacity:1;fill-rule:nonzero;stroke:none"
         id="path1121" />
      <path
         d="m 686.563,2404.55 c 3.503,-5.26 10.781,-11.75 12.89,-15.81 0.75,7.24 -3.215,13.4 -2.668,20.33 10.574,-5.33 23.977,-6.76 34.731,-10.85 -0.266,5.9 -1.516,13.4 -3.442,19.07 17.778,1.51 29.332,-14.13 45.864,-14.47 0.554,9.22 -3.821,16.43 -4.418,24.6 17.57,0.69 33.246,-15.4 50.46,-13.53 -0.578,5.71 -2.722,13.84 -4.183,19.98 16.09,0.93 41.586,-19.56 53.871,-29.04 0.437,7.8 -0.391,15.83 1.16,23.56 22.727,-8.65 40.981,-26.15 61.445,-38.6 0.688,7 -1.863,13.41 -1.628,20.25 23.906,-11.65 37.207,-41.14 54.101,-60.51 0.137,5.6 -4.43,9.87 -4.266,15.39 4.333,-5.76 8.399,-12.17 12.84,-18.08 -9.687,12.98 -16.918,31.14 -23.265,46.41 2.484,-5.43 4.847,-10.77 7.601,-16.04 -9.695,14.13 -26.332,27.76 -30.73,44.82 -1.399,-3.85 1.148,-8.43 4.035,-11.65 -7.875,10.33 -24.789,25.97 -36.879,30.49 0.688,-5.97 7.031,-9.91 8.125,-15.77 -9.141,5.17 -19.004,17.19 -29.238,18.97 0.566,-1.55 0.051,-4.59 0.699,-6.24 -11.59,-2.03 -26.066,9.09 -35.672,14.52 -0.215,-3.85 1.75,-7.24 2.477,-10.84 -8.754,2.19 -17.575,9.65 -26.668,10.84 -1.078,-2.86 -1.024,-6.09 0.043,-9.01 -12.7,-0.56 -25.196,4.53 -37.571,3.43 0.493,-1.43 0.071,-4.89 0.52,-6.04 -6.367,3.22 -21.746,7.97 -28.809,5.24 -6.254,-2.42 -4.914,-2.51 -4.16,-9.99 -10.586,-0.61 -21.387,0.14 -31.98,-0.19 -0.227,-3.09 -1.356,-5.91 -1.172,-9.02 -7.61,-0.71 -15.149,1.27 -22.778,0.65 0.012,-1.83 -1.328,-3.35 -1.218,-5.23 -7.539,-0.4 -20.418,2.52 -18.414,-9.23 -0.993,0.23 -2.297,0.34 -3.407,0.71 -0.906,-3.89 0.121,-7.16 3.543,-8.19"
         style="fill:#8c4c21;fill-opacity:1;fill-rule:nonzero;stroke:none"
         id="path1123" />
      <path
         d="m 661.699,2400.87 c 1.36,-12.93 8.985,-22.83 8.281,-36.84 -0.554,-11.35 -4.16,-30.88 -13.652,-37.91 0.098,-29.77 1.57,-77.24 -18.816,-101.72 -3.442,9.18 -4.332,21.74 -9.824,29.75 3.152,-1.86 6.492,-3.64 9.929,-4.18 -1.75,13.08 -10.281,30.43 -8.015,43.8 4.675,-4.24 8.828,-8.44 13.543,-12.32 0.875,8.62 -6.727,15.67 -8.887,23.76 -2.238,8.38 -6.817,27.78 -5.567,36.69 6.188,-3.32 10.957,-10.15 16.25,-14.62 -1.336,8.81 -0.976,19.08 -0.644,28.34 3.769,-0.71 6.855,-3.33 10.82,-4.38 1.223,6.58 -3.926,12.18 -5.39,18.37 -1.153,4.91 -1.055,10.16 -0.782,15.28 4.082,-2.19 7.981,-5.28 11.66,-7.87 -2.46,5.23 -6.699,18.32 -1.667,22.93"
         style="fill:#8c4c21;fill-opacity:1;fill-rule:nonzero;stroke:none"
         id="path1125" />
    </g>
    <g
       id="g1129"
       clip-path="url(#clipPath1133)"
       transform="matrix(0.04888718,0,0,-0.07128847,-321.05492,145.10908)">
      <path
         d="m 3349.58,562.301 h 168.84 v 88.8281 h -168.84 z"
         style="fill:#ecae93;fill-opacity:1;fill-rule:nonzero;stroke:none"
         id="path1135" />
      <path
         d="m 3394.31,582.98 -44.73,23.5 v 44.649 h 168.84 V 648 c -2.05,-3.262 -4.27,-6.301 -6.29,-8.969 -10.27,-13.601 -23.93,-25.281 -40.87,-35.101 -20.87,-12.09 -47.31,-20.059 -74.46,-20.891 -0.83,-0.019 -1.66,-0.039 -2.49,-0.059"
         style="fill:#c38f79;fill-opacity:1;fill-rule:nonzero;stroke:none"
         id="path1137" />
      <path
         d="m 3434.06,1149.73 v 0 h -0.13 c -107.89,-3.05 -190.21,-47.37 -189.82,-200.218 0.23,-90.621 8.49,-117.352 34.89,-220.762 18.27,-71.539 115.48,-109.289 152.53,-111.75 l 2.47,0.219 2.46,-0.219 c 37.05,2.461 134.26,40.211 152.53,111.75 26.41,103.41 34.67,130.141 34.9,220.762 0.4,152.848 -81.95,197.168 -189.83,200.218"
         style="fill:#ecae93;fill-opacity:1;fill-rule:nonzero;stroke:none"
         id="path1139" />
      <path
         d="m 3376.5,632.5 c 21.74,-9.441 42.07,-14.641 55.03,-15.5 l 2.47,0.219 2.46,-0.219 c 12.06,0.809 30.48,5.359 50.48,13.602 l 19.3,26.757 c 0,0 -59.69,-66.918 -144.1,0 L 3376.5,632.5"
         style="fill:#1d0908;fill-opacity:1;fill-rule:nonzero;stroke:none"
         id="path1141" />
      <path
         d="m 3603.24,886.641 -11.79,-90.25 c 46.31,-20.403 53.56,85.82 53.56,85.82 -10.71,26.488 -41.77,4.43 -41.77,4.43"
         style="fill:#ecae93;fill-opacity:1;fill-rule:nonzero;stroke:none"
         id="path1143" />
      <path
         d="m 3217.33,882.211 c 0,0 7.24,-106.223 53.55,-85.82 l -11.79,90.25 c 0,0 -31.07,22.058 -41.76,-4.43"
         style="fill:#ecae93;fill-opacity:1;fill-rule:nonzero;stroke:none"
         id="path1145" />
      <path
         d="m 3519.89,562.301 228.04,-59.34 c 0,0 77.81,-11.93 97.67,-81.852 l 34.03,-126.75 h -443.37 -3.9 -443.37 l 34.03,126.75 c 19.85,69.922 97.66,81.852 97.66,81.852 l 227.38,59.34 h 171.83"
         style="fill:#ecae93;fill-opacity:1;fill-rule:nonzero;stroke:none"
         id="path1147" />
      <path
         d="m 2988.99,294.359 34.03,126.75 c 19.85,69.922 97.66,81.852 97.66,81.852 l 227.38,59.34 h 171.83 l 228.04,-59.34 c 0,0 77.81,-11.93 97.67,-81.852 l 34.03,-126.75 h -890.64"
         style="fill:#ffffff;fill-opacity:1;fill-rule:nonzero;stroke:none"
         id="path1149" />
      <path
         d="m 3448.97,562.301 h -29.33 l -41.77,-65.821 37.36,-42.031 h 18.83 0.51 18.82 l 37.35,42.031 -41.77,65.821"
         style="fill:#f68712;fill-opacity:1;fill-rule:nonzero;stroke:none"
         id="path1151" />
      <path
         d="m 3453.39,454.449 h -38.16 l -30.19,33.973 30.19,-33.973 h 18.83 0.51 18.82 l 4.58,5.16 v 0 l -4.58,-5.16"
         style="fill:#bdbcbd;fill-opacity:1;fill-rule:nonzero;stroke:none"
         id="path1153" />
      <path
         d="m 3453.39,454.449 h -38.16 l -30.19,33.973 40.02,60.816 c -2,-31.437 8.55,-64.199 30,-86.777 0.93,-0.973 1.9,-1.922 2.91,-2.852 l -4.58,-5.16"
         style="fill:#b6620d;fill-opacity:1;fill-rule:nonzero;stroke:none"
         id="path1155" />
      <path
         d="m 3580.45,546.539 -0.18,0.051 -61.58,57.301 -0.27,-0.141 0.27,0.141 61.76,-57.352"
         style="fill:#3882a4;fill-opacity:1;fill-rule:nonzero;stroke:none"
         id="path1157" />
      <path
         d="m 3489.7,475.09 -7.69,11.57 4.49,5.051 4.22,-5.422 95.14,55.09 -5.59,5.211 0.18,-0.051 11,-10.207 -101.75,-61.242"
         style="fill:#bdbcbd;fill-opacity:1;fill-rule:nonzero;stroke:none"
         id="path1159" />
      <path
         d="m 3482.01,486.66 -48.35,72.82 52.84,-67.769 -4.49,-5.051"
         style="fill:#b6620d;fill-opacity:1;fill-rule:nonzero;stroke:none"
         id="path1161" />
      <path
         d="m 3518.69,603.891 -85.03,-44.411 57.06,-73.191 95.14,55.09 -67.17,62.512"
         style="fill:#ffffff;fill-opacity:1;fill-rule:nonzero;stroke:none"
         id="path1163" />
      <path
         d="m 3283.03,545.332 66.11,61.387 0.44,-0.239 v -44.179 h 84.08 -85.6 l -65.03,-16.969"
         style="fill:#3882a4;fill-opacity:1;fill-rule:nonzero;stroke:none"
         id="path1165" />
      <path
         d="m 3433.66,562.301 h -84.08 v 44.179 -21.8 c 12.23,-1.149 24.59,-1.789 36.84,-1.789 2.64,0 5.27,0.031 7.89,0.089 l 39.35,-20.679"
         style="fill:#af806c;fill-opacity:1;fill-rule:nonzero;stroke:none"
         id="path1167" />
      <path
         d="m 3386.42,582.891 c -12.25,0 -24.61,0.64 -36.84,1.789 v 21.8 l 44.73,-23.5 c -2.62,-0.058 -5.25,-0.089 -7.89,-0.089"
         style="fill:#926a59;fill-opacity:1;fill-rule:nonzero;stroke:none"
         id="path1169" />
      <path
         d="m 3378.13,477.922 -101.75,61.238 6.65,6.172 65.03,16.969 h 85.6 -14.02 l -41.77,-65.821 7.17,-8.058 -6.91,-10.5"
         style="fill:#bdbcbd;fill-opacity:1;fill-rule:nonzero;stroke:none"
         id="path1171" />
      <path
         d="m 3377.87,496.48 v 0 l 41.77,65.821 h 14.02 l -8.6,-13.063 c 0.28,4.391 0.8,8.75 1.58,13.063 h -7 l -41.77,-65.821"
         style="fill:#b6620d;fill-opacity:1;fill-rule:nonzero;stroke:none"
         id="path1173" />
      <path
         d="m 3385.04,488.422 -7.17,8.058 41.77,65.821 h 7 c -0.78,-4.313 -1.3,-8.672 -1.58,-13.063 l -40.02,-60.816"
         style="fill:#894909;fill-opacity:1;fill-rule:nonzero;stroke:none"
         id="path1175" />
      <path
         d="m 3349.14,606.719 85.03,-44.418 -57.06,-73.172 -95.14,55.09 67.17,62.5"
         style="fill:#ffffff;fill-opacity:1;fill-rule:nonzero;stroke:none"
         id="path1177" />
      <path
         d="m 3283.05,545.23 -162.37,-42.269 c 0,0 -77.81,-11.93 -97.66,-81.852 l -34.03,-126.75 h 890.64 l -34.03,126.75 c -19.86,69.922 -97.67,81.852 -97.67,81.852 L 3577.91,551.738 3433.66,300.672 3283.05,545.23"
         style="fill:#3e080c;fill-opacity:1;fill-rule:nonzero;stroke:none"
         id="path1179" />
      <path
         d="m 3414.58,454.449 -20.33,-89.777 39.41,-64 36.78,64.027 -17.7,89.75 h -38.16"
         style="fill:#f68712;fill-opacity:1;fill-rule:nonzero;stroke:none"
         id="path1181" />
      <path
         d="m 3283.05,545.23 -76.91,-20.019 43.37,-16.832 -26.77,-30.457 155.13,-183.563 h 60.28 l -155.1,250.871"
         style="fill:#2e0407;fill-opacity:1;fill-rule:nonzero;stroke:none"
         id="path1183" />
      <path
         d="m 3577.91,551.738 84.62,-24.277 -43.38,-19.082 26.77,-30.457 -155.14,-183.563 h -60.27 l 147.4,257.379"
         style="fill:#2e0407;fill-opacity:1;fill-rule:nonzero;stroke:none"
         id="path1185" />
      <path
         d="m 3261.76,873.398 9.53,-114.507 c -50.06,134.73 -21.13,310.949 -21.13,310.949 5.25,45.7 55.96,60.19 55.96,60.19 9.82,56.47 111.8,71.21 111.8,71.21 279.84,9.81 205.97,-298.369 205.97,-298.369 0,-46.652 -30.26,-155.961 -30.26,-155.961 l 11.34,148.34 c 0,28.281 -27,58.328 -25.06,78.949 11.54,122.681 -79.46,107.711 -79.46,107.711 -55.08,-10.84 -122.58,0.2 -122.58,0.2 0,0 -106.99,35.64 -95.9,-114.141 0,0 9.11,-16.028 -20.21,-94.571"
         style="fill:#1d0908;fill-opacity:1;fill-rule:nonzero;stroke:none"
         id="path1187" />
      <path
         d="m 3434.68,678.93 c 30.79,2.769 48.66,17.058 48.66,17.058 -32.12,14.461 -46.25,7.91 -49.34,6 -3.1,1.91 -17.23,8.461 -49.34,-6 0,0 17.86,-14.289 48.67,-17.058 v -0.11 l 0.67,0.051 0.68,-0.051 v 0.11"
         style="fill:#ecae93;fill-opacity:1;fill-rule:nonzero;stroke:none"
         id="path1189" />
      <path
         d="m 3417.92,743.461 c -12.7,3.578 -32.65,-0.691 -43.86,-6.922 -13.45,-7.469 -22.89,-20.898 -27.41,-35.41 -7.46,-23.949 0.27,-47.098 20.34,-61.758 3.4,-2.492 9.31,-7.723 13.58,-8.621 -11.43,13.148 -19.64,30.301 -19.71,48.031 -0.1,26.289 18.76,47.09 45.11,48.989 7.03,0.511 21.68,-0.848 26.62,-6.879 1.69,10.968 -4.39,19.668 -14.67,22.57"
         style="fill:#1d0908;fill-opacity:1;fill-rule:nonzero;stroke:none"
         id="path1191" />
      <path
         d="m 3448.53,743.461 c 12.71,3.578 32.64,-0.691 43.86,-6.922 13.45,-7.469 22.89,-20.898 27.41,-35.41 7.45,-23.949 -0.29,-47.098 -20.34,-61.758 -3.4,-2.492 -9.31,-7.723 -13.59,-8.621 11.43,13.148 19.64,30.301 19.71,48.031 0.1,26.289 -18.75,47.09 -45.11,48.989 -7.03,0.511 -22.95,-0.848 -27.88,-6.879 -1.69,10.968 5.65,19.668 15.94,22.57"
         style="fill:#1d0908;fill-opacity:1;fill-rule:nonzero;stroke:none"
         id="path1193" />
      <path
         d="m 3487.08,630.75 c 0,0 56.35,21.09 85.18,62.68 0,0 -28.48,-13.969 -53.84,-12.75 0,0 -6.94,-34.16 -31.34,-49.93"
         style="fill:#1d0908;fill-opacity:1;fill-rule:nonzero;stroke:none"
         id="path1195" />
      <path
         d="m 3381.1,630.75 c 0,0 -56.38,21.09 -85.2,62.68 0,0 28.48,-13.969 53.85,-12.75 0,0 6.94,-34.16 31.35,-49.93"
         style="fill:#1d0908;fill-opacity:1;fill-rule:nonzero;stroke:none"
         id="path1197" />
      <path
         d="m 3445.48,649.59 c 2.32,7.621 3.07,25.402 -11.48,23.949 -14.56,1.453 -13.81,-16.328 -11.49,-23.949 3.09,-10.141 -14.9,-20.84 -15.02,-20.25 l 0.12,-0.59 26.39,-5.539 26.39,5.539 0.12,0.59 c -0.12,-0.59 -18.12,10.109 -15.03,20.25"
         style="fill:#1d0908;fill-opacity:1;fill-rule:nonzero;stroke:none"
         id="path1199" />
      <path
         d="m 3333.75,1149.06 c 7.39,-9.17 14.68,-18.61 20.34,-28.81 -0.14,9.53 -0.3,19.22 0.2,28.64 10.73,-6.71 19.88,-23.25 32.59,-25.38 0.46,6.37 0.33,13.52 0.93,19.46 14.47,-8.68 49.15,-33.53 47.52,0.31 12.97,-3.56 23.6,-19.13 38.09,-21.61 -0.17,2.66 0.84,6.05 0.57,8.69 9.04,-0.15 28.93,-22.14 29.45,-1.85 11.99,-0.99 37.2,-17.93 46.36,-25.62 12.2,-10.26 26.9,-23.03 34.53,-36.73 2.26,6.75 0.01,15.21 -0.25,23.54 5.01,-10.79 15.47,-26.66 27.5,-28.75 l -3.12,4.59 c 0.61,-5.23 1.17,-6.81 3.45,-11.64 -1.43,17 -12.51,36.94 -23.64,48.99 -0.09,-1.41 -0.03,-3.45 -0.29,-4.85 -1.22,6.28 -4.72,10.3 -8.83,14.04 -0.38,-4.35 -3.3,-9.17 -2.68,-14.06 -4.8,12.21 -11.77,24.83 -18.55,36.26 -0.89,-3.45 -3.55,-7.15 -3.54,-12.06 -1.67,10.96 -7.07,21.53 -16.3,26.69 -0.46,-2.07 -1.64,-4.54 -2.12,-7.08 -4.63,6.22 -8.08,15.99 -17.73,14.27 -0.71,-2.8 -3.22,-5.35 -3.87,-7.31 -6.63,3.94 -11.25,10.08 -18.27,13.01 0.61,-3.77 -1.11,-8.76 -0.47,-12.57 -10.49,5.19 -20.6,17.3 -32.47,9.23 -9.34,10.47 -24.64,18.48 -38.54,20.01 -2.77,-10.9 6.01,-20.63 13.73,-27.65 -12.29,9.79 -25.86,17.89 -39.76,25.21 -1.35,-16.52 -16.61,-4.74 -22.84,-15.73 -9.05,4.63 -20.1,9.16 -27.63,0.05 -23.54,19.67 -25.33,-12.81 -10.68,-20.5"
         style="fill:#270d0d;fill-opacity:1;fill-rule:nonzero;stroke:none"
         id="path1201" />
    </g>
    <g
       id="g1205"
       clip-path="url(#clipPath1209)"
       transform="matrix(0.04888718,0,0,-0.07128847,-188.8679,333.4578)">
      <path
         d="m 2185.01,528.121 h 113.449 v 152.23 H 2185.01 Z"
         style="fill:#1b0e08;fill-opacity:1;fill-rule:nonzero;stroke:none"
         id="path1211" />
      <path
         d="m 2049.53,561.051 h 161.207 v 93.168 H 2049.53 Z"
         style="fill:#ecae93;fill-opacity:1;fill-rule:nonzero;stroke:none"
         id="path1213" />
      <path
         d="m 2084.91,582.629 c -11.77,0 -23.63,0.68 -35.38,1.891 v 69.699 h 161.21 v -3.297 c -1.95,-3.402 -4.08,-6.59 -5.99,-9.391 -9.81,-14.281 -22.86,-26.519 -39.03,-36.82 -19.93,-12.68 -45.17,-21.051 -71.1,-21.922 -3.23,-0.098 -6.46,-0.16 -9.71,-0.16"
         style="fill:#c38f79;fill-opacity:1;fill-rule:nonzero;stroke:none"
         id="path1215" />
      <path
         d="m 2329.79,907.809 c 0,149.351 -89.48,235.181 -200.13,235.871 l -0.96,0.03 -0.2,-0.01 -0.21,0.01 -0.96,-0.03 c -110.64,-0.69 -200.12,-86.52 -200.12,-235.871 0,-193.688 139.43,-306.649 201.07,-307.149 l 0.01,-0.012 0.21,0.012 0.2,-0.012 0.01,0.012 c 61.64,0.5 201.08,113.461 201.08,307.149"
         style="fill:#ecae93;fill-opacity:1;fill-rule:nonzero;stroke:none"
         id="path1217" />
      <path
         d="m 2309.95,852.52 -11.49,-88.008 c 45.15,-19.883 52.21,83.687 52.21,83.687 -10.43,25.813 -40.72,4.321 -40.72,4.321"
         style="fill:#ecae93;fill-opacity:1;fill-rule:nonzero;stroke:none"
         id="path1219" />
      <path
         d="m 1911.41,848.199 c 0,0 7.07,-103.57 52.23,-83.687 l -11.49,88.008 c 0,0 -30.29,21.492 -40.74,-4.321"
         style="fill:#ecae93;fill-opacity:1;fill-rule:nonzero;stroke:none"
         id="path1221" />
      <path
         d="m 2048.9,568.16 -193.92,-59.98 c 0,0 -67.85,-12.039 -85.18,-82.668 l -29.67,-128.063 h 386.67 3.41 386.67 l -29.69,128.063 c -17.32,70.629 -85.18,82.668 -85.18,82.668 l -193.9,59.98 H 2048.9"
         style="fill:#ecae93;fill-opacity:1;fill-rule:nonzero;stroke:none"
         id="path1223" />
      <path
         d="m 2516.88,297.449 -29.69,128.063 c -17.32,70.629 -85.18,82.668 -85.18,82.668 l -82.54,25.531 c 0,0 34.91,-88.172 -127.17,-153.082 0,0 -47.56,-14.438 -62.6,-49.949 l -1.41,-3.25 -0.99,3.25 c -15.04,35.511 -62.6,49.949 -62.6,49.949 -162.06,64.91 -127.18,153.082 -127.18,153.082 l -82.54,-25.531 c 0,0 -67.85,-12.039 -85.18,-82.668 l -29.67,-128.063 h 397.3 379.45"
         style="fill:#962738;fill-opacity:1;fill-rule:nonzero;stroke:none"
         id="path1225" />
      <path
         d="m 2311.71,929.012 c 1.23,-15.922 8.97,-31.242 10.6,-47.172 2.06,-20.051 -4.63,-37.738 -12.86,-54.988 -18.17,-38.153 -28.13,-87.641 -21.12,-129.852 3.31,-19.93 12.23,-35.211 25.14,-49.75 12.03,-13.52 26.72,-24.059 31.75,-41.918 13.35,-47.312 -24.87,-57.16 -47.68,-88.512 -20.2,-27.73 -16.55,-85.058 -5.29,-116.179 18.15,-50.192 87.95,-69.309 135.79,-72.262 18,-1.098 37.96,-3.039 49.66,12.34 9.46,12.441 11.51,33.691 5.24,47.64 -5.75,12.782 -15.88,14.762 -26.38,22.86 -11.51,8.863 -20.95,22.019 -29.99,33.543 -22.16,28.277 -25.48,65.578 -1.7,95.008 21.5,26.609 41.59,44.039 38.3,81.421 -3.98,45.399 -54.62,67.77 -82.77,98.239 -26.95,29.14 -3.4,55.789 10.17,84.531 10.34,21.879 18.57,41.551 16.29,66.937 -4.57,50.524 -42.33,73.434 -68.73,112.704"
         style="fill:#2d1a12;fill-opacity:1;fill-rule:nonzero;stroke:none"
         id="path1227" />
      <path
         d="m 2253.54,927.809 c 0.32,-16.68 7.49,-33.137 8.22,-49.868 0.92,-21.07 -7.13,-39.109 -16.77,-56.632 -21.29,-38.707 -34.7,-89.77 -29.94,-134.258 2.24,-21.012 10.61,-37.5 23.22,-53.461 11.73,-14.86 26.43,-26.738 30.6,-45.68 11.05,-50.211 -29.45,-58.172 -55.15,-89.48 -22.76,-27.75 -22.45,-87.821 -12.6,-120.969 15.91,-53.512 87.61,-77.711 137.37,-83.68 18.73,-2.242 39.44,-5.472 52.58,9.848 10.64,12.41 14.07,34.48 8.37,49.41 -5.22,13.699 -15.67,16.391 -26.14,25.473 -11.48,9.949 -20.54,24.258 -29.27,36.847 -21.41,30.86 -22.62,69.993 3.99,99.282 24.06,26.461 46.08,43.418 44.94,82.648 -1.41,47.641 -52.9,74.07 -80.45,107.57 -26.36,32.063 -0.15,58.461 15.76,87.621 12.12,22.219 14.98,42.95 21.07,68.891 13.69,58.391 -2.22,145.139 -27.4,187.739"
         style="fill:#351f17;fill-opacity:1;fill-rule:nonzero;stroke:none"
         id="path1229" />
      <path
         d="m 2003.92,1039.46 c 0,0 154.53,78.84 211.7,-78.909 0,0 23.1,240.969 -211.7,78.909"
         style="fill:#1f110a;fill-opacity:1;fill-rule:nonzero;stroke:none"
         id="path1231" />
      <path
         d="m 2026.02,1128.93 c 0,0 -24.05,-64.89 -13,-83.3 0,0 -75.85,-30.92 -82.99,-184.759 0,0 -6.91,1.84 -15.78,-7.391 0,0 -57.66,217.59 111.77,275.45"
         style="fill:#331e15;fill-opacity:1;fill-rule:nonzero;stroke:none"
         id="path1233" />
      <path
         d="m 2003.92,1039.46 c 0,0 187.14,137.12 206.82,-62.19 0,0 28.71,-127.321 119.05,-116.348 0,0 55.35,126.976 -51.47,259.578 0,0 -75.51,95.76 -186.01,61.2 0,0 -108.65,-37.99 -88.39,-142.24"
         style="fill:#351f17;fill-opacity:1;fill-rule:nonzero;stroke:none"
         id="path1235" />
      <path
         d="m 1937.52,768.172 c 0,0 13,-141.883 112.01,-183.652 v 52.351 c 0,0 -67.71,60.668 -93.23,125.418 0,0 -12.29,-1.758 -18.78,5.883"
         style="fill:#1b0e08;fill-opacity:1;fill-rule:nonzero;stroke:none"
         id="path1237" />
    </g>
    <g
       id="g1241"
       clip-path="url(#clipPath1245)"
       transform="matrix(0.04888718,0,0,-0.07128847,-94.371557,260.69621)">
      <path
         d="m 732.961,573.129 h 168.836 v 88.832 H 732.961 Z"
         style="fill:#ecae93;fill-opacity:1;fill-rule:nonzero;stroke:none"
         id="path1247" />
      <path
         d="m 777.707,593.801 -44.746,23.508 v 44.652 h 168.836 v -3.152 c -2.051,-3.239 -4.27,-6.27 -6.289,-8.95 -10.266,-13.609 -23.926,-25.277 -40.871,-35.097 -20.875,-12.114 -47.301,-20.071 -74.449,-20.891 -0.829,-0.031 -1.653,-0.051 -2.481,-0.07"
         style="fill:#c38f79;fill-opacity:1;fill-rule:nonzero;stroke:none"
         id="path1249" />
      <path
         d="m 817.441,1149.73 v 0 h -0.128 C 709.434,1146.68 627.102,1102.36 627.48,949.512 627.727,858.891 635.977,832.16 662.395,728.75 680.652,657.211 777.859,619.461 814.922,617 l 2.461,0.219 2.461,-0.219 c 37.051,2.461 134.258,40.211 152.527,111.75 26.399,103.41 34.659,130.141 34.899,220.762 0.4,152.848 -81.95,197.168 -189.829,200.218"
         style="fill:#ecae93;fill-opacity:1;fill-rule:nonzero;stroke:none"
         id="path1251" />
      <path
         d="m 986.621,897.469 -11.797,-90.25 c 46.316,-20.399 53.566,85.82 53.566,85.82 -10.71,26.473 -41.769,4.43 -41.769,4.43"
         style="fill:#ecae93;fill-opacity:1;fill-rule:nonzero;stroke:none"
         id="path1253" />
      <path
         d="m 600.715,882.211 c 0,0 7.234,-106.223 53.543,-85.82 l -11.785,90.25 c 0,0 -31.078,22.05 -41.758,-4.43"
         style="fill:#ecae93;fill-opacity:1;fill-rule:nonzero;stroke:none"
         id="path1255" />
      <path
         d="m 903.27,562.301 228.04,-59.34 c 0,0 77.81,-11.93 97.67,-81.852 l 34.03,-126.75 H 819.629 815.742 372.371 l 34.024,126.75 c 19.855,69.922 97.675,81.852 97.675,81.852 l 227.375,59.34 H 903.27"
         style="fill:#ecae93;fill-opacity:1;fill-rule:nonzero;stroke:none"
         id="path1257" />
      <path
         d="m 372.371,294.359 34.024,126.75 c 19.855,69.922 97.675,81.852 97.675,81.852 l 227.375,59.34 H 903.27 l 228.04,-59.34 c 0,0 77.81,-11.93 97.67,-81.852 l 34.03,-126.75 H 372.371"
         style="fill:#ffffff;fill-opacity:1;fill-rule:nonzero;stroke:none"
         id="path1259" />
      <path
         d="m 832.352,573.129 h -29.325 l -41.765,-65.82 37.351,-42.039 h 18.821 0.504 18.828 l 37.355,42.039 -41.769,65.82"
         style="fill:#d82930;fill-opacity:1;fill-rule:nonzero;stroke:none"
         id="path1261" />
      <path
         d="m 836.766,465.27 h -38.153 l -30.195,33.992 30.195,-33.992 h 18.821 0.504 18.828 l 4.586,5.16 c 0.003,0 0.003,0 0.003,0 l -4.589,-5.16"
         style="fill:#bdbcbd;fill-opacity:1;fill-rule:nonzero;stroke:none"
         id="path1263" />
      <path
         d="m 836.766,465.27 h -38.153 l -30.195,33.992 40.016,60.797 c -1.993,-31.438 8.57,-64.188 30.011,-86.77 0.93,-0.969 1.895,-1.918 2.907,-2.859 l -4.586,-5.16"
         style="fill:#a01d22;fill-opacity:1;fill-rule:nonzero;stroke:none"
         id="path1265" />
      <path
         d="m 970.797,544.73 -9.988,2.598 8.437,4.891 -67.156,62.492 -0.293,-0.152 0.293,0.152 72.734,-67.551 -4.027,-2.43"
         style="fill:#b5512d;fill-opacity:1;fill-rule:nonzero;stroke:none"
         id="path1267" />
      <path
         d="m 873.086,485.922 -7.688,11.57 4.481,5.047 4.223,-5.41 86.707,50.199 9.988,-2.598 -97.711,-58.808"
         style="fill:#bdbcbd;fill-opacity:1;fill-rule:nonzero;stroke:none"
         id="path1269" />
      <path
         d="m 865.398,497.492 -48.355,72.809 52.836,-67.762 -4.481,-5.047"
         style="fill:#a01d22;fill-opacity:1;fill-rule:nonzero;stroke:none"
         id="path1271" />
      <path
         d="m 902.09,614.711 -85.047,-44.41 57.059,-73.172 95.144,55.09 -67.156,62.492"
         style="fill:#ffffff;fill-opacity:1;fill-rule:nonzero;stroke:none"
         id="path1273" />
      <path
         d="m 667.16,545.52 -7.402,4.46 72.75,67.571 0.453,-0.242 v -44.18 h 84.082 -14.016 l -6.871,-10.828 H 731.445 L 667.16,545.52"
         style="fill:#b5512d;fill-opacity:1;fill-rule:nonzero;stroke:none"
         id="path1275" />
      <path
         d="m 817.043,573.129 h -84.082 v 44.18 -21.797 c 12.238,-1.153 24.613,-1.801 36.894,-1.801 2.625,0 5.239,0.031 7.852,0.09 l 39.336,-20.672"
         style="fill:#af806c;fill-opacity:1;fill-rule:nonzero;stroke:none"
         id="path1277" />
      <path
         d="m 769.855,593.711 c -12.281,0 -24.656,0.648 -36.894,1.801 v 21.797 l 44.746,-23.508 c -2.613,-0.059 -5.227,-0.09 -7.852,-0.09"
         style="fill:#926a59;fill-opacity:1;fill-rule:nonzero;stroke:none"
         id="path1279" />
      <path
         d="m 761.504,488.762 -94.344,56.758 64.285,16.781 h 64.711 l -34.894,-54.992 7.156,-8.047 -6.914,-10.5"
         style="fill:#bdbcbd;fill-opacity:1;fill-rule:nonzero;stroke:none"
         id="path1281" />
      <path
         d="m 761.262,507.309 v 0 l 34.894,54.992 6.871,10.828 h 14.016 l -8.609,-13.07 c 0.277,4.39 0.8,8.761 1.574,13.07 h -6.981 l -41.765,-65.82"
         style="fill:#a01d22;fill-opacity:1;fill-rule:nonzero;stroke:none"
         id="path1283" />
      <path
         d="m 768.418,499.262 -7.156,8.047 41.765,65.82 h 6.981 c -0.774,-4.309 -1.297,-8.68 -1.574,-13.07 l -40.016,-60.797"
         style="fill:#7a1518;fill-opacity:1;fill-rule:nonzero;stroke:none"
         id="path1285" />
      <path
         d="m 732.512,617.551 85.047,-44.422 -57.063,-73.188 -95.144,55.11 67.16,62.5"
         style="fill:#ffffff;fill-opacity:1;fill-rule:nonzero;stroke:none"
         id="path1287" />
      <path
         d="M 666.426,545.23 504.07,502.961 c 0,0 -77.82,-11.93 -97.675,-81.852 l -34.024,-126.75 h 890.639 l -34.03,126.75 c -19.86,69.922 -97.67,81.852 -97.67,81.852 L 961.289,551.738 817.043,300.672 666.426,545.23"
         style="fill:#0c202a;fill-opacity:1;fill-rule:nonzero;stroke:none"
         id="path1289" />
      <path
         d="m 797.961,465.27 -20.332,-89.782 39.414,-63.988 36.785,64.031 -17.707,89.739 h -38.16"
         style="fill:#d82930;fill-opacity:1;fill-rule:nonzero;stroke:none"
         id="path1291" />
      <path
         d="M 666.426,545.23 589.512,525.211 632.898,508.379 606.113,477.93 761.262,294.359 h 60.269 L 666.426,545.23"
         style="fill:#08161c;fill-opacity:1;fill-rule:nonzero;stroke:none"
         id="path1293" />
      <path
         d="m 961.289,562.57 84.621,-24.289 -43.38,-19.062 26.77,-30.457 L 874.16,305.191 H 813.887 L 961.289,562.57"
         style="fill:#08161c;fill-opacity:1;fill-rule:nonzero;stroke:none"
         id="path1295" />
      <path
         d="m 667.59,1165.7 -0.227,0.12 z M 630,886.211 646.848,784.75 l 14.011,-9.102 -14.011,142.434 24.043,56.828 5.82,46.77 0.699,0.44 c 17.192,60.16 149.785,52.8 149.785,52.8 157.688,-3.24 136.399,-112.811 136.399,-112.811 l 23.164,-49.25 -14.004,-142.41 14.004,9.09 16.852,101.449 c 25.47,55.793 10.2,185.342 10.2,185.342 0,0 -19.201,52.78 -60.08,58.84 0,0 -19.113,88.4 -144.597,72.44 0,0 -116.723,-27.01 -154.875,40.51 0,0 -1.485,-45.41 23.152,-61.37 0,0 -25.008,14.73 -29.043,28.23 0,0 1.801,-28.32 17.258,-38.17 -7.687,4.56 -36.105,22.78 -46.289,49.22 0,0 -8.145,-42.97 25.012,-66.3 0,0 -45.532,25.78 -43.633,55.25 0,0 -14.192,-60.16 26.765,-74.89 0,0 -15.058,-11.05 -50.664,30.69 0,0 -10.261,-71.3 40.52,-78.57 0,0 -20,-40.52 12.664,-195.999"
         style="fill:#80210e;fill-opacity:1;fill-rule:nonzero;stroke:none"
         id="path1297" />
      <path
         d="m 629.609,1025.73 c 3.418,-1.19 12.52,-8.45 18.262,-11.01 -0.469,18.75 -5.906,37.69 -4.558,57.52 9.832,-3.89 20.82,-9.99 31.589,-12.9 -6.574,9.18 -10.976,20.72 -9.504,32.51 14.18,1.84 25.625,-10.18 38.95,-9.48 1.218,9.91 -2.883,20.16 -2.141,30.39 20.879,-3.28 42.578,-12.3 63.586,-15.68 -3.664,8.32 -9.836,16.82 -11.914,25.63 26.375,-5.2 52.879,-13.51 79.461,-18.28 -2.254,7.15 -10.274,13.45 -9.656,21.81 28.054,2.95 58.953,-21.56 85.554,-27.9 -5.437,3.24 -10.215,8.74 -12.859,14.75 17.508,-7.56 38.309,-22.75 53.699,-34.19 -2.578,2.18 -4.57,4.14 -6.836,6.73 7.821,-6.04 15.711,-12.28 22.942,-19 -8.204,20.34 -34.504,26.86 -40.215,48.37 3.355,-4.93 8.008,-10.01 12.715,-12.95 -7.114,16.41 -27.051,30.53 -40.371,41.66 -6.04,5.03 -11.575,10.92 -19.465,12.77 5.351,-10.71 13.691,-19.84 20.476,-29.7 -12.344,8.19 -25.496,23.79 -39.988,26.56 1.504,-9.27 11.406,-18.06 14.441,-26.84 -18.804,8.2 -35.437,37.14 -56.304,39.08 2.8,-5.02 7.105,-10.64 9.547,-15.54 -10.625,6.8 -30.665,17.63 -43.778,15.55 -0.027,-9.21 7.117,-19.24 12,-26.73 -15.144,6.4 -30.387,21.47 -47.781,21.79 4.16,-4.69 10.066,-8.45 14.199,-13.21 -11.367,-0.02 -43.894,17.52 -53.613,9.47 -6.668,-5.52 1.633,-12.9 2.488,-20.61 -7.039,3.41 -30.965,19.42 -39.324,12.28 -7.09,-6.04 9.172,-18.29 10.859,-25.75 -11.902,2.32 -22.343,10.61 -35.105,9.52 1.558,-5.81 7.117,-10.17 10.476,-15.57 -7.793,0.59 -14.648,6.32 -22.746,4.28 -0.601,-4.27 -0.41,-8.82 0.598,-12.93 -3.484,1.31 -7.805,3.35 -11.707,4.7 1.863,-5.33 6.062,-10.2 7.078,-15.68 l -2.129,-0.41 c 2.578,-4.95 4.856,-10.89 4.578,-16.56 -1.922,1.52 -5.125,1.9 -6.992,3.16 -1.394,-9.47 1.367,-19.6 0.859,-29.26 l -3.152,-0.35 c 2.402,-1.66 3.192,-3.97 5.36,-5.69 l -1.852,-0.48 c 4.148,-7.95 5.762,-22.4 -0.305,-29.74 0.586,3.47 2.18,6.22 3.809,9.14"
         style="fill:#932710;fill-opacity:1;fill-rule:nonzero;stroke:none"
         id="path1299" />
    </g>
    <g
       id="g1303"
       clip-path="url(#clipPath1307)"
       transform="matrix(0.04888718,0,0,-0.07128847,131.16315,319.3003)">
      <path
         d="m 3355.34,3174.61 h 161.219 v 93.1445 H 3355.34 Z"
         style="fill:#ecae93;fill-opacity:1;fill-rule:nonzero;stroke:none"
         id="path1309" />
      <path
         d="m 3390.49,3196.18 c -11.69,0 -23.48,0.68 -35.15,1.88 v 69.69 h 161.22 v -3.31 c -1.95,-3.38 -4.08,-6.57 -6,-9.37 -9.81,-14.28 -22.85,-26.52 -39.03,-36.82 -19.93,-12.69 -45.17,-21.04 -71.1,-21.9 -3.3,-0.12 -6.61,-0.17 -9.94,-0.17"
         style="fill:#c38f79;fill-opacity:1;fill-rule:nonzero;stroke:none"
         id="path1311" />
      <path
         d="m 3635.6,3521.36 c 0,149.34 -89.49,235.16 -200.13,235.87 l -0.95,0.01 h -0.21 -0.2 l -0.97,-0.01 c -110.64,-0.71 -200.12,-86.53 -200.12,-235.87 0,-193.7 139.43,-306.65 201.08,-307.15 l 0.01,-0.02 0.2,0.01 0.21,-0.01 v 0.02 c 61.64,0.5 201.08,113.45 201.08,307.15"
         style="fill:#ecae93;fill-opacity:1;fill-rule:nonzero;stroke:none"
         id="path1313" />
      <path
         d="m 3615.77,3466.06 -11.5,-88.01 c 45.15,-19.88 52.22,83.68 52.22,83.68 -10.45,25.83 -40.72,4.33 -40.72,4.33"
         style="fill:#ecae93;fill-opacity:1;fill-rule:nonzero;stroke:none"
         id="path1315" />
      <path
         d="m 3217.23,3461.73 c 0,0 7.06,-103.56 52.22,-83.68 l -11.49,88.01 c 0,0 -30.3,21.5 -40.73,-4.33"
         style="fill:#ecae93;fill-opacity:1;fill-rule:nonzero;stroke:none"
         id="path1317" />
      <path
         d="m 3354.71,3181.7 -193.91,-59.97 c 0,0 -67.86,-12.04 -85.18,-82.68 l -29.67,-128.07 h 386.66 3.4 386.67 L 3793,3039.05 c -17.32,70.64 -85.18,82.68 -85.18,82.68 l -193.9,59.97 h -159.21"
         style="fill:#ecae93;fill-opacity:1;fill-rule:nonzero;stroke:none"
         id="path1319" />
      <path
         d="m 3658.72,3022.35 13.51,111.03 -44.88,13.86 c 0,0 -33.91,-151.15 -192.01,-175.07 -158.09,23.92 -192,175.07 -192,175.07 l -44.88,-13.86 13.5,-111.03 c 0,0 -25.77,-61.39 -14.72,-111.37 h 238.1 238.12 c 11.05,49.98 -14.74,111.37 -14.74,111.37"
         style="fill:#d82930;fill-opacity:1;fill-rule:nonzero;stroke:none"
         id="path1321" />
      <path
         d="m 3604.27,3485.71 c 0,0 12.61,-168.06 -87.71,-227.98 l 1.72,-81.3 178.97,-51.43 c 0,0 -32.54,35.95 -21.04,176.29 0,0 76.46,385.26 -120.84,481.03 0,0 -127.85,57.08 -248.21,0 0,0 -213.65,-84.71 -112.68,-445.67 0,0 22.75,-104.69 -23.1,-211.65 l 183.33,56.7 0.63,64.8 c 0,0 -80.58,62.45 -85.89,131.55 0,0 -51.02,213.48 57.78,271.66 0,0 105.77,-130.39 197.15,-157.03 0,0 -20,18.48 -64.41,76.5 0,0 44.24,-77.36 144.3,-83.47"
         style="fill:#331011;fill-opacity:1;fill-rule:nonzero;stroke:none"
         id="path1323" />
      <path
         d="m 3343.34,3739.96 c -1.35,-43.3 65.62,-91.17 92.34,-119.14 -12.19,22.29 -28.01,43.56 -33.59,68.81 22.38,-17.92 42.32,-38.69 64.63,-56.94 29.03,-23.75 52.55,-59.74 84.46,-78.58 -5.73,17.04 -26.1,33.47 -34.87,51.08 -6.23,12.51 -11.69,31.4 -19.84,40.73 4.6,-23.21 63.5,-62.09 82.17,-75.49 19.66,-14.07 47.41,-39.14 72,-41.91 -9.63,26.91 -18.93,57.99 -32.81,84.37 -6.23,11.84 -16.79,47.46 -31.09,47.63 -2.98,-14.73 11.75,-33.32 10.45,-51.16 -17.47,2.41 -40.73,34.33 -53.13,47.17 -15.1,15.67 -30.83,49.86 -53.12,53.71 -0.57,-10.13 -0.03,-20.63 -0.56,-30.78 -15.85,0.82 -136.35,129.02 -143.37,56.83"
         style="fill:#3a1a13;fill-opacity:1;fill-rule:nonzero;stroke:none"
         id="path1325" />
    </g>
    <g
       id="g1329"
       clip-path="url(#clipPath1333)"
       transform="matrix(0.04888718,0,0,-0.07128847,-295.198,299.16995)">
      <path
         d="m 3355.34,1866.31 h 161.219 v 93.1406 H 3355.34 Z"
         style="fill:#ecae93;fill-opacity:1;fill-rule:nonzero;stroke:none"
         id="path1335" />
      <path
         d="m 3390.5,1887.88 c -11.7,0 -23.49,0.67 -35.16,1.88 v 69.69 h 161.22 v -3.31 c -1.95,-3.38 -4.09,-6.57 -6.01,-9.37 -9.79,-14.28 -22.84,-26.52 -39.03,-36.83 -19.92,-12.68 -45.16,-21.04 -71.09,-21.9 -3.3,-0.11 -6.61,-0.16 -9.93,-0.16"
         style="fill:#c38f79;fill-opacity:1;fill-rule:nonzero;stroke:none"
         id="path1337" />
      <path
         d="m 3635.6,2213.05 c 0,149.35 -89.48,235.17 -200.13,235.87 l -0.96,0.02 h -0.2 -0.21 l -0.95,-0.02 c -110.65,-0.7 -200.13,-86.52 -200.13,-235.87 0,-193.69 139.43,-306.66 201.07,-307.15 l 0.01,-0.01 0.21,0.01 0.2,-0.01 v 0.01 c 61.66,0.49 201.09,113.46 201.09,307.15"
         style="fill:#ecae93;fill-opacity:1;fill-rule:nonzero;stroke:none"
         id="path1339" />
      <path
         d="m 3615.76,2157.76 -11.49,-88.02 c 45.15,-19.87 52.22,83.7 52.22,83.7 -10.44,25.81 -40.73,4.32 -40.73,4.32"
         style="fill:#ecae93;fill-opacity:1;fill-rule:nonzero;stroke:none"
         id="path1341" />
      <path
         d="m 3217.23,2153.44 c 0,0 7.06,-103.57 52.21,-83.7 l -11.48,88.02 c 0,0 -30.3,21.49 -40.73,-4.32"
         style="fill:#ecae93;fill-opacity:1;fill-rule:nonzero;stroke:none"
         id="path1343" />
      <path
         d="m 3354.71,1873.4 -193.91,-59.97 c 0,0 -67.87,-12.05 -85.18,-82.68 l -29.68,-128.07 h 386.67 3.4 386.67 L 3793,1730.75 c -17.32,70.63 -85.18,82.68 -85.18,82.68 l -193.91,59.97 h -159.2"
         style="fill:#ecae93;fill-opacity:1;fill-rule:nonzero;stroke:none"
         id="path1345" />
      <path
         d="m 3625.81,1838.79 82.01,-25.36 c 0,0 67.86,-12.05 85.18,-82.68 l 29.68,-128.07 h -386.67 -3.4 -386.67 l 29.68,128.07 c 17.31,70.63 85.18,82.68 85.18,82.68 l 82.54,25.52 c 0,0 0,-181.74 190.98,-186.33 0,0 187.75,-19.36 191.49,186.17"
         style="fill:#3bbec5;fill-opacity:1;fill-rule:nonzero;stroke:none"
         id="path1347" />
      <path
         d="m 3341.23,2396.6 c 0.06,-0.11 97.71,-198.18 289.15,-230.45 0,0 12.31,3.31 20.58,-4.36 -1.5,1.39 2.96,24.86 3.13,27.09 1.85,23.57 3.45,47.29 2.32,70.94 -2.75,57.27 -22.21,128.71 -60.83,172.44 -13.51,15.3 -30.51,26.64 -48.85,35.37 -35.1,16.72 -72.91,25.26 -111.81,23.89 -29.71,-1.05 -67.36,-8.75 -84.2,-36.07 -4.91,-7.97 -7.33,-17.05 -8.57,-26.25 -1.03,-7.68 -4.37,-25.6 -0.92,-32.6"
         style="fill:#351f17;fill-opacity:1;fill-rule:nonzero;stroke:none"
         id="path1349" />
      <path
         d="m 3355.34,2371.75 c 0,0 -95.34,-50.62 -119.5,-205.63 0,0 -20.61,-0.03 -18.15,-17.78 0,0 -41.02,277.56 133.03,307.11 l 4.62,-83.7"
         style="fill:#351f17;fill-opacity:1;fill-rule:nonzero;stroke:none"
         id="path1351" />
      <path
         d="m 3262.26,2067.21 c 0,0 31.11,-75.85 90.94,-123.37 l 1.51,-70.44 c 0.77,-36.04 -13.91,-68.71 -36.99,-95.82 -21.86,-25.69 -52.57,-42.28 -73.7,-68.25 -16.13,-19.83 -17.56,-42.61 -1.6,-62.98 -2.33,2.96 -31.6,-0.22 -37.52,0.74 -7.72,1.22 -15.32,3.74 -22.57,6.63 -18.28,7.26 -31.94,20.38 -38.99,38.99 -5.34,14.11 -5.42,30.49 -3.76,45.33 7.87,70.83 91.92,83.67 109.75,146.45 6.36,22.42 0.33,41.74 -2.63,63.97 0,0 -13.06,98.13 15.56,118.75"
         style="fill:#351f17;fill-opacity:1;fill-rule:nonzero;stroke:none"
         id="path1353" />
      <path
         d="m 3599.28,2173.03 c 0,0 12.66,-439.4 -47.5,-532.69 0,0 72.44,-42.99 78.6,525.81 l -31.1,6.88"
         style="fill:#351f17;fill-opacity:1;fill-rule:nonzero;stroke:none"
         id="path1355" />
      <path
         d="m 3387.27,2457.38 c -11.84,-28.02 6.1,-81.73 18.5,-108.09 -1.38,12.89 1.51,26.36 5.94,37.96 19.77,-32.7 29.33,-115.3 69.61,-126.32 1.01,17.05 -4.55,33.54 -3.49,50.82 31.53,-23.72 51.89,-76.46 89.44,-95.34 5.76,10.32 1.38,30.07 -0.64,41.57 11.79,-17.91 42.19,-57.84 63.44,-59.97 -0.84,15.9 -16.15,33.26 -23.66,47.48 -6.48,12.29 -12.22,30.29 -25.46,34.86 0.43,-3.81 -1.04,-8.58 -0.6,-12.4 -16.58,5.99 -23.8,46.77 -42.59,60.06 -21.82,15.45 -13.19,-11.97 -14.63,-30.71 -17.99,26.1 -26.62,63.35 -47.01,88.1 -4.47,-9.22 -6.73,-20.32 -13.4,-27.73 -17.15,32.71 -24.99,127.04 -84.66,101.55"
         style="fill:#43281e;fill-opacity:1;fill-rule:nonzero;stroke:none"
         id="path1357" />
      <path
         d="m 3274.93,2015.4 c -6.03,-16.85 -5.6,-55.16 -0.04,-70.28 1.33,1.64 3.98,4.23 5.11,5.68 10.9,-27.77 4.78,-85.66 -12.61,-109.75 1.45,2.97 3.78,6.15 5.33,8.46 1.28,-24.22 -27.79,-59.02 -47.37,-71.16 0.08,2.51 -0.69,5.77 -0.52,8.13 -19.55,-24.89 -25.11,-57.84 -39.9,-85.15 1.48,3.74 3.79,5.16 6.66,8.18 0.8,-2.72 3.55,-6.22 4.11,-8.51 15.99,23.38 26.97,56.56 44.38,77.3 4.82,-13.43 3.41,-28.65 18.27,-15.47 9.16,8.12 8.61,28 20.4,35.88 3.17,2.14 3.09,5.55 7.22,7 3.43,1.21 6.36,-7.78 7.28,-7.33 15.52,7.73 18.96,33.57 24.44,50.86 5.69,17.96 6.12,42.87 4.84,64.84 -2.08,-3.12 -8.63,-6.86 -11.17,-10.91 -11.2,10.39 -6.83,33.04 -10.14,46.43 -2.62,10.59 -8.7,23.16 -11.92,34.35 -10.52,-0.6 -18.24,8.26 -18.05,18.57"
         style="fill:#43281e;fill-opacity:1;fill-rule:nonzero;stroke:none"
         id="path1359" />
    </g>
    <g
       id="g1363"
       clip-path="url(#clipPath1367)"
       transform="matrix(0.04888718,0,0,-0.07128847,-169.08251,379.95184)">
      <path
         d="m 2041.27,3178.93 h 168.84 v 88.8242 h -168.84 z"
         style="fill:#ecae93;fill-opacity:1;fill-rule:nonzero;stroke:none"
         id="path1369" />
      <path
         d="m 2086.03,3199.59 -44.76,23.52 v 44.64 h 168.84 v -3.15 c -2.04,-3.24 -4.27,-6.27 -6.29,-8.96 -10.26,-13.6 -23.93,-25.28 -40.87,-35.09 -20.86,-12.1 -47.3,-20.06 -74.45,-20.89 -0.82,-0.03 -1.64,-0.05 -2.47,-0.07"
         style="fill:#c38f79;fill-opacity:1;fill-rule:nonzero;stroke:none"
         id="path1371" />
      <path
         d="m 2125.76,3766.35 v 0.01 h -0.13 v -0.01 c -107.89,-3.05 -190.22,-47.38 -189.83,-200.22 0.24,-90.61 8.5,-117.36 34.9,-220.76 18.27,-71.55 115.47,-109.29 152.53,-111.75 l 2.45,0.22 2.47,-0.22 c 37.06,2.46 134.26,40.2 152.53,111.75 26.41,103.4 34.67,130.15 34.91,220.76 0.39,152.84 -81.95,197.17 -189.83,200.22"
         style="fill:#ecae93;fill-opacity:1;fill-rule:nonzero;stroke:none"
         id="path1373" />
      <path
         d="m 2294.93,3503.25 -11.78,-90.24 c 46.31,-20.38 53.55,85.82 53.55,85.82 -10.7,26.47 -41.77,4.42 -41.77,4.42"
         style="fill:#ecae93;fill-opacity:1;fill-rule:nonzero;stroke:none"
         id="path1375" />
      <path
         d="m 1909.02,3498.83 c 0,0 7.24,-106.2 53.55,-85.82 l -11.78,90.24 c 0,0 -31.07,22.05 -41.77,-4.42"
         style="fill:#ecae93;fill-opacity:1;fill-rule:nonzero;stroke:none"
         id="path1377" />
      <path
         d="m 2211.59,3178.93 228.03,-59.36 c 0,0 77.81,-11.93 97.67,-81.84 l 34.03,-126.75 h -443.37 -3.89 -443.38 l 34.03,126.75 c 19.86,69.91 97.68,81.84 97.68,81.84 l 227.37,59.36 h 171.83"
         style="fill:#ecae93;fill-opacity:1;fill-rule:nonzero;stroke:none"
         id="path1379" />
      <path
         d="m 1680.68,2910.98 34.03,126.75 c 19.86,69.91 97.68,81.84 97.68,81.84 l 227.37,59.36 h 171.83 l 228.03,-59.36 c 0,0 77.81,-11.93 97.67,-81.84 l 34.03,-126.75 h -890.64"
         style="fill:#ffffff;fill-opacity:1;fill-rule:nonzero;stroke:none"
         id="path1381" />
      <path
         d="m 2140.67,3178.93 h -29.33 l -41.76,-65.84 37.34,-42.03 h 18.83 0.51 18.83 l 37.34,42.03 -41.76,65.84"
         style="fill:#bf1b2c;fill-opacity:1;fill-rule:nonzero;stroke:none"
         id="path1383" />
      <path
         d="m 2145.09,3071.06 h -38.17 l -30.18,33.98 30.18,-33.98 h 18.83 0.51 18.83 l 4.58,5.16 v 0 l -4.58,-5.16"
         style="fill:#bdbcbd;fill-opacity:1;fill-rule:nonzero;stroke:none"
         id="path1385" />
      <path
         d="m 2145.09,3071.06 h -38.17 l -30.18,33.98 40.01,60.82 c -2,-31.45 8.57,-64.2 30.01,-86.79 0.93,-0.96 1.9,-1.91 2.91,-2.85 l -4.58,-5.16"
         style="fill:#8f131f;fill-opacity:1;fill-rule:nonzero;stroke:none"
         id="path1387" />
      <path
         d="m 2276.37,3162.07 -0.19,0.05 -65.78,61.22 -0.29,-0.15 0.29,0.15 65.97,-61.27"
         style="fill:#b02932;fill-opacity:1;fill-rule:nonzero;stroke:none"
         id="path1389" />
      <path
         d="m 2181.41,3094.53 -6.62,9.96 4.58,5.16 3.05,-3.91 95.14,55.09 -1.38,1.29 0.19,-0.05 6.78,-6.3 -101.74,-61.24"
         style="fill:#bdbcbd;fill-opacity:1;fill-rule:nonzero;stroke:none"
         id="path1391" />
      <path
         d="m 2174.79,3104.49 -49.44,74.44 54.02,-69.28 -4.58,-5.16"
         style="fill:#8f131f;fill-opacity:1;fill-rule:nonzero;stroke:none"
         id="path1393" />
      <path
         d="m 2210.4,3223.34 -85.05,-44.41 57.07,-73.19 95.14,55.09 -67.16,62.51"
         style="fill:#ffffff;fill-opacity:1;fill-rule:nonzero;stroke:none"
         id="path1395" />
      <path
         d="m 1974.75,3161.96 66.08,61.38 0.44,-0.23 v -44.18 h 84.08 -85.59 l -65.01,-16.97"
         style="fill:#b02932;fill-opacity:1;fill-rule:nonzero;stroke:none"
         id="path1397" />
      <path
         d="m 2125.35,3178.93 h -84.08 v 44.18 -21.81 c 12.25,-1.15 24.63,-1.8 36.91,-1.8 2.62,0 5.24,0.03 7.85,0.09 l 39.32,-20.66"
         style="fill:#af806c;fill-opacity:1;fill-rule:nonzero;stroke:none"
         id="path1399" />
      <path
         d="m 2078.18,3199.5 c -12.28,0 -24.66,0.65 -36.91,1.8 v 21.81 l 44.76,-23.52 c -2.61,-0.06 -5.23,-0.09 -7.85,-0.09"
         style="fill:#926a59;fill-opacity:1;fill-rule:nonzero;stroke:none"
         id="path1401" />
      <path
         d="m 2069.83,3094.53 -101.75,61.24 6.67,6.19 65.01,16.97 h 85.59 -14.01 l -41.76,-65.84 7.16,-8.05 -6.91,-10.51"
         style="fill:#bdbcbd;fill-opacity:1;fill-rule:nonzero;stroke:none"
         id="path1403" />
      <path
         d="m 2069.58,3113.09 v 0 l 41.76,65.84 h 14.01 l -8.6,-13.07 c 0.28,4.39 0.8,8.76 1.58,13.07 h -6.99 l -41.76,-65.84"
         style="fill:#8f131f;fill-opacity:1;fill-rule:nonzero;stroke:none"
         id="path1405" />
      <path
         d="m 2076.74,3105.04 -7.16,8.05 41.76,65.84 h 6.99 c -0.78,-4.31 -1.3,-8.68 -1.58,-13.07 l -40.01,-60.82"
         style="fill:#6d0d16;fill-opacity:1;fill-rule:nonzero;stroke:none"
         id="path1407" />
      <path
         d="m 2040.83,3223.34 85.03,-44.41 -57.05,-73.19 -95.15,55.09 67.17,62.51"
         style="fill:#ffffff;fill-opacity:1;fill-rule:nonzero;stroke:none"
         id="path1409" />
      <path
         d="m 1974.74,3161.84 -162.35,-42.27 c 0,0 -77.82,-11.93 -97.68,-81.84 l -34.03,-126.75 h 890.64 l -34.03,126.75 c -19.86,69.91 -97.67,81.84 -97.67,81.84 l -170.03,48.78 -144.24,-251.07 -150.61,244.56"
         style="fill:#183651;fill-opacity:1;fill-rule:nonzero;stroke:none"
         id="path1411" />
      <path
         d="m 2106.27,3071.06 -20.33,-89.78 39.41,-64 36.79,64.04 -17.7,89.74 h -38.17"
         style="fill:#bf1b2c;fill-opacity:1;fill-rule:nonzero;stroke:none"
         id="path1413" />
      <path
         d="m 1974.74,3161.84 -76.91,-20.04 43.38,-16.81 -26.78,-30.46 155.15,-183.55 h 60.26 l -155.1,250.86"
         style="fill:#102638;fill-opacity:1;fill-rule:nonzero;stroke:none"
         id="path1415" />
      <path
         d="m 2269.59,3168.35 84.63,-24.28 -43.38,-19.08 26.77,-30.46 -155.12,-183.55 h -60.29 l 147.39,257.37"
         style="fill:#102638;fill-opacity:1;fill-rule:nonzero;stroke:none"
         id="path1417" />
      <path
         d="m 1953.47,3490.02 9.52,-114.5 c -50.07,134.71 -21.13,310.93 -21.13,310.93 15.96,65.07 30.69,76.12 56.47,89.62 25.78,13.51 15.96,11.06 56.48,20.88 40.51,9.82 0,0 54.8,13.51 54.81,13.49 100.5,-17.17 100.5,-17.17 37.44,-22.06 60.77,-33.18 60.77,-33.18 82.26,-63.83 44.71,-240.62 44.71,-240.62 0,-46.65 -30.26,-155.97 -30.26,-155.97 l 11.34,148.34 c 0,204.78 -104.52,186.66 -104.52,186.66 -55.08,-10.84 -122.57,0.22 -122.57,0.22 0,0 -125.38,38.46 -116.11,-206.06"
         style="fill:#1d0908;fill-opacity:1;fill-rule:nonzero;stroke:none"
         id="path1419" />
      <path
         d="m 1960.09,3410.4 c 0,0 11.89,-91.54 103.31,-131.55 0,0 21.84,-13.61 58.8,-11.1 v -34.13 c 0,0 -43.29,-0.75 -105.45,42.77 0,0 -63.28,38.07 -56.66,134.01"
         style="fill:#1d0908;fill-opacity:1;fill-rule:nonzero;stroke:none"
         id="path1421" />
      <path
         d="m 2290.68,3410.4 c 0,0 -12.5,-91.54 -108.67,-131.55 0,0 -22.97,-13.61 -61.85,-11.1 v -34.13 c 0,0 45.54,-0.75 110.92,42.77 0,0 66.57,38.07 59.6,134.01"
         style="fill:#1d0908;fill-opacity:1;fill-rule:nonzero;stroke:none"
         id="path1423" />
      <path
         d="m 1953.47,3404.87 c 0,0 41.23,-92.06 93.25,-82.86 0,0 46.15,29.32 75.48,12.85 0,0 44.32,16.47 79.26,-13.11 0,0 50.12,9.05 86.52,76.4 0,0 -10.42,-130.4 -162.63,-141.4 0,0 -144.21,-0.02 -171.88,148.12"
         style="fill:#1d0908;fill-opacity:1;fill-rule:nonzero;stroke:none"
         id="path1425" />
      <path
         d="m 2126.37,3295.55 c 30.8,2.76 48.65,17.06 48.65,17.06 -32.1,14.45 -46.24,7.91 -49.34,5.99 -3.08,1.92 -17.21,8.46 -49.32,-5.99 0,0 17.85,-14.3 48.65,-17.06 v -0.12 l 0.67,0.07 0.69,-0.07 v 0.12"
         style="fill:#ecae93;fill-opacity:1;fill-rule:nonzero;stroke:none"
         id="path1427" />
      <path
         d="m 1964.06,3691.47 c 0.55,-2.58 -0.97,-4.07 1.38,-5.41 2.57,10.61 3.52,21.02 8.19,31.07 6.48,-4.37 21.34,-29.41 20.17,-3.83 6.93,0.67 14.54,-7.04 19.97,-5.32 8.28,2.61 8.95,15.56 14.66,22.44 13.02,-9.38 14.86,-16.87 27.7,-9.55 4.54,2.56 2.96,11.41 9.17,13.09 7.41,2 10.91,-6.48 16.61,-7.17 4.42,-0.52 21.59,1.77 25.38,4.01 6.57,3.88 11.71,25.42 22.41,8.8 14.93,11.04 17.46,-13.43 31.13,-14.73 -0.02,2.19 0.4,4.69 0.55,6.88 8.48,-5.99 10.16,2.43 16.2,1.81 11.33,-1.12 13.56,-6.81 22.6,-10.45 7.63,-3.06 29.18,-9.26 37.95,-7.38 0.24,1.09 0.45,2.21 0.6,3.32 11.27,-10.29 19.93,-25.02 32.99,-33.36 1.2,1.08 1.02,2.75 1.62,3.36 7.42,-10.08 10.06,-22.5 21.82,-28.68 0.86,24.05 -32.24,53.18 -43.9,68.22 0.95,-1.73 1.47,-3.79 2.55,-5.61 -12.12,11.95 -27.86,22.96 -44.54,31.02 0.66,-2.51 0.51,-6.05 1.28,-8.59 -4.85,11.43 -41.46,21.56 -52.85,25.07 0.3,-2.71 -0.84,-6.23 -0.56,-8.97 -0.68,0.52 -9.8,6.58 -10.77,5.98 3.33,2.11 -14.24,-6.85 -7.26,-6.02 -0.09,-0.01 -4.41,-4.75 -7.34,-5.25 -3.22,-0.55 -12.9,7.71 -16.42,8.68 -0.08,-2.21 -0.54,-4.67 -0.56,-6.88 -2.58,1.91 -9.31,3.7 -12.25,6.94 0.14,-2.73 -0.85,-6.14 -0.69,-8.88 -4.76,5.08 -11.86,10.89 -19.7,12.56 0.83,-4.28 -0.29,-7.75 1.84,-12.25 -3.77,7.52 -9.39,10.9 -14.88,5.16 -7.45,7.24 -23.74,18.81 -25.73,1.93 -2.21,-0.12 -3.22,1.66 -5.29,1.4 -6.96,-9.14 -15.81,-2.53 -24.03,-0.02 0.96,-9.73 -0.04,-22.47 -11.42,-18.37 -0.7,-2.15 -1.25,-4.63 -2.02,-7 -1,0.55 -3.84,2.75 -4.95,2.93 -6.26,-6.16 -17.18,-5.9 -25.77,-10.74 0.38,-14.52 -3.95,-26.79 -4.01,-42.04"
         style="fill:#2f1111;fill-opacity:1;fill-rule:nonzero;stroke:none"
         id="path1429" />
    </g>
    <g
       id="g1433"
       clip-path="url(#clipPath1437)"
       transform="matrix(0.04888718,0,0,-0.07128847,-158.13911,253.69711)">
      <path
         d="m 1896.53,2154.86 c 0,0 -29.59,-216.49 136.22,-219.35 h 175.5 c 0,0 156.04,40.11 125.35,219.35 h -437.07"
         style="fill:#2d1507;fill-opacity:1;fill-rule:nonzero;stroke:none"
         id="path1439" />
      <path
         d="m 2047.03,1895.92 h 161.219 v 93.1484 H 2047.03 Z"
         style="fill:#ecae93;fill-opacity:1;fill-rule:nonzero;stroke:none"
         id="path1441" />
      <path
         d="m 2082.28,1917.49 c -11.73,0 -23.55,0.68 -35.25,1.87 v 69.71 h 161.22 v -3.31 c -1.96,-3.39 -4.08,-6.57 -6.01,-9.38 -9.8,-14.27 -22.85,-26.52 -39.02,-36.81 -19.93,-12.7 -45.17,-21.06 -71.11,-21.92 -3.26,-0.1 -6.54,-0.16 -9.83,-0.16"
         style="fill:#c38f79;fill-opacity:1;fill-rule:nonzero;stroke:none"
         id="path1443" />
      <path
         d="m 2327.29,2242.67 c 0,149.34 -89.48,235.16 -200.13,235.86 l -0.95,0.02 h -0.21 -0.21 l -0.95,-0.02 c -110.66,-0.7 -200.13,-86.52 -200.13,-235.86 0,-193.7 139.44,-306.65 201.08,-307.15 v -0.01 h 0.21 0.21 v 0.01 c 61.64,0.5 201.08,113.45 201.08,307.15"
         style="fill:#ecae93;fill-opacity:1;fill-rule:nonzero;stroke:none"
         id="path1445" />
      <path
         d="m 2307.45,2187.37 -11.49,-88 c 45.15,-19.89 52.22,83.69 52.22,83.69 -10.44,25.81 -40.73,4.31 -40.73,4.31"
         style="fill:#ecae93;fill-opacity:1;fill-rule:nonzero;stroke:none"
         id="path1447" />
      <path
         d="m 1908.92,2183.06 c 0,0 7.06,-103.58 52.22,-83.69 l -11.5,88 c 0,0 -30.29,21.5 -40.72,-4.31"
         style="fill:#ecae93;fill-opacity:1;fill-rule:nonzero;stroke:none"
         id="path1449" />
      <path
         d="m 2046.4,1903.01 -193.91,-59.97 c 0,0 -67.87,-12.04 -85.18,-82.67 l -29.68,-128.07 h 386.67 3.4 386.67 l -29.68,128.07 c -17.33,70.63 -85.18,82.67 -85.18,82.67 l -193.91,59.97 h -159.2"
         style="fill:#ecae93;fill-opacity:1;fill-rule:nonzero;stroke:none"
         id="path1451" />
      <path
         d="m 2295.96,1875.07 103.55,-32.03 c 0,0 67.85,-12.04 85.18,-82.67 l 29.68,-128.07 h -386.67 -3.4 -386.67 l 29.68,128.07 c 17.31,70.63 85.18,82.67 85.18,82.67 l 102.85,31.8 c 0,0 145,-96.88 340.62,0.23"
         style="fill:#d82930;fill-opacity:1;fill-rule:nonzero;stroke:none"
         id="path1453" />
      <path
         d="m 2120.47,1831.85 c -0.01,0 -0.01,0 -0.02,0 0.01,0 0.01,0 0.02,0 v 0 m 0.04,0 c 50.26,0.01 109.58,10.7 174.51,42.75 -64.94,-32.06 -124.24,-42.75 -174.51,-42.75 m 174.77,42.88 c 0.23,0.11 0.45,0.22 0.68,0.34 l -0.01,-0.01 c -0.22,-0.11 -0.44,-0.22 -0.67,-0.33"
         style="fill:#af806c;fill-opacity:1;fill-rule:nonzero;stroke:none"
         id="path1455" />
      <path
         d="m 2473.75,1760.35 c -25.39,45.78 -74.24,54.45 -74.24,54.45 l -103.55,32.03 c -65.32,-32.43 -124.98,-43.22 -175.5,-43.22 -100.77,0 -165.12,42.99 -165.12,42.99 l -102.85,-31.8 c 0,0 -48.86,-8.67 -74.24,-54.44 -2.93,2.61 -5.84,5.26 -8.72,7.93 20.23,63.62 82.96,74.75 82.96,74.75 l 102.85,31.8 c 0,0 64.32,-42.99 165.11,-42.99 0.01,0 0.01,0 0.02,0 v 0 0 c 0.01,0 0.03,0 0.04,0 50.27,0 109.57,10.69 174.51,42.75 0.08,0.04 0.18,0.09 0.26,0.13 0.23,0.11 0.45,0.22 0.68,0.34 v 0 0 l 103.55,-32.03 c 0,0 62.72,-11.13 82.95,-74.76 -2.87,-2.67 -5.78,-5.32 -8.71,-7.93"
         style="fill:#a01d22;fill-opacity:1;fill-rule:nonzero;stroke:none"
         id="path1457" />
      <path
         d="m 1879.96,2261.06 c -14.74,-318.57 55.06,-346.21 55.06,-346.21 93.11,-19 97.73,20.66 97.73,20.66 -122.65,32.5 -99.57,323.72 -99.57,323.72 0,0 75.22,53.57 87.33,118.24 l 2.94,101.08 c 0,0 -98.74,-7.55 -143.49,-217.49"
         style="fill:#643516;fill-opacity:1;fill-rule:nonzero;stroke:none"
         id="path1459" />
      <path
         d="m 2015.62,2384.44 c 0,0 81.03,-126.45 292.2,-125.21 0,0 23.07,-291.22 -99.57,-323.72 0,0 7.69,-44.82 100.8,-25.81 0,0 71.21,-13.78 60.15,336.01 0,0 1.17,333.96 -294.65,268.87 0,0 -110.49,-46.65 -58.93,-130.14"
         style="fill:#7a411c;fill-opacity:1;fill-rule:nonzero;stroke:none"
         id="path1461" />
      <path
         d="m 2021.41,2435.99 c -2.56,-13.65 16.14,-52.99 29.46,-56.75 17.14,-4.86 11.86,10.85 14.64,22.96 9.56,-15.92 23.88,-36.62 42.18,-43.35 -0.28,7 0.62,14.64 2.39,21.34 15.4,-15.19 40.5,-34.71 60.03,-43.43 4.2,9.56 3.1,21.41 -1.28,30.86 27.26,-5.25 48.32,-33.68 75.13,-40.08 -0.2,7.22 -0.29,15.05 2.51,21.71 23.81,-5.09 49.48,-27.08 71.16,-39.76 1.19,8.39 -0.99,16.82 -1.28,25.07 9.44,-4.66 17.5,-13.69 27.05,-18.11 -1.13,21.12 -17.3,54.15 -41.79,52.97 0.66,-4.38 -0.55,-9.92 1.24,-13.88 -13.66,19.52 -37.72,46.25 -56.38,60.04 -0.56,-7.65 3.27,-14.39 5.36,-21.37 -11.36,12.29 -27.63,30.75 -44.13,34.31 -1.66,-13.53 2.97,-26.77 1.23,-40.29 -13.77,5.17 -17.81,27.44 -32.44,34.86 -0.01,-5.12 -3.25,-10.86 -2.47,-16.43 -17.52,7.62 -32.7,25.11 -49.23,34.83 0.35,-12.69 7.32,-24.47 14.8,-34.48 -7.87,10.48 -15.4,26.06 -27.67,30.4 -1.6,-9.03 0.27,-18.59 6.17,-25.73 -12.66,4.33 -18.6,16.65 -28.67,23.71 0.02,-1.94 -2.08,-7.01 -1.99,-10.16 -14.72,-1.52 -27.57,17.03 -43.73,17.94 1.08,-3.9 -0.35,-8.35 1.47,-12.45 -7.61,2.18 -20.02,9.3 -23.76,5.27"
         style="fill:#874920;fill-opacity:1;fill-rule:nonzero;stroke:none"
         id="path1463" />
    </g>
    <g
       id="g1467"
       clip-path="url(#clipPath1471)"
       transform="matrix(0.04888718,0,0,-0.07128847,-103.43641,291.22735)">
      <path
         d="m 987.656,3144.06 h -334.82 l -58.305,298.52 h 424.449 l -31.324,-298.52"
         style="fill:#4d1206;fill-opacity:1;fill-rule:nonzero;stroke:none"
         id="path1473" />
      <path
         d="M 738.727,3174.59 H 899.93 v 93.1719 H 738.727 Z"
         style="fill:#ecae93;fill-opacity:1;fill-rule:nonzero;stroke:none"
         id="path1475" />
      <path
         d="m 774.109,3196.17 c -11.773,0 -23.64,0.67 -35.382,1.88 v 69.71 H 899.93 v -3.32 c -1.946,-3.39 -4.075,-6.57 -5.996,-9.38 -9.797,-14.27 -22.844,-26.51 -39.028,-36.82 -19.926,-12.69 -45.164,-21.03 -71.093,-21.91 -3.223,-0.11 -6.461,-0.16 -9.704,-0.16"
         style="fill:#c38f79;fill-opacity:1;fill-rule:nonzero;stroke:none"
         id="path1477" />
      <path
         d="m 1018.98,3521.36 c 0,149.33 -89.472,235.15 -200.132,235.87 l -0.953,0.01 h -0.204 -0.207 l -0.961,-0.01 c -110.64,-0.72 -200.121,-86.54 -200.121,-235.87 0,-193.71 139.438,-306.65 201.075,-307.16 h 0.007 0.207 0.204 0.011 c 61.641,0.51 201.074,113.45 201.074,307.16"
         style="fill:#ecae93;fill-opacity:1;fill-rule:nonzero;stroke:none"
         id="path1479" />
      <path
         d="m 999.145,3466.06 -11.489,-88.01 c 45.154,-19.89 52.204,83.68 52.204,83.68 -10.44,25.83 -40.715,4.33 -40.715,4.33"
         style="fill:#ecae93;fill-opacity:1;fill-rule:nonzero;stroke:none"
         id="path1481" />
      <path
         d="m 600.609,3461.73 c 0,0 7.063,-103.57 52.227,-83.68 l -11.504,88.01 c 0,0 -30.285,21.5 -40.723,-4.33"
         style="fill:#ecae93;fill-opacity:1;fill-rule:nonzero;stroke:none"
         id="path1483" />
      <path
         d="m 738.09,3181.7 -193.91,-59.98 c 0,0 -67.864,-12.04 -85.18,-82.68 l -29.68,-128.06 h 386.672 3.403 386.665 l -29.68,128.06 c -17.32,70.64 -85.17,82.68 -85.17,82.68 L 897.289,3181.7 H 738.09"
         style="fill:#ecae93;fill-opacity:1;fill-rule:nonzero;stroke:none"
         id="path1485" />
      <path
         d="m 1042.1,3022.35 13.51,111.03 -44.88,13.86 c 0,0 -33.91,-151.17 -192.003,-175.08 -158.09,23.91 -192.004,175.08 -192.004,175.08 l -44.883,-13.86 13.512,-111.03 c 0,0 -25.782,-61.39 -14.739,-111.37 h 238.114 238.113 c 11.05,49.98 -14.74,111.37 -14.74,111.37"
         style="fill:#f68712;fill-opacity:1;fill-rule:nonzero;stroke:none"
         id="path1487" />
      <path
         d="m 722.434,3693.75 c 0,0 34.32,-104.96 196.703,-160.22 0,0 123.863,-15.34 140.453,-66.39 0,0 38.72,169.22 -40.61,257.2 0,0 -128.14,158.43 -296.546,32.9 0,0 -30.895,-11.95 0,-63.49"
         style="fill:#80210e;fill-opacity:1;fill-rule:nonzero;stroke:none"
         id="path1489" />
      <path
         d="m 720.395,3749.93 c 0,0 -191.141,-38.23 -102.325,-275.48 0,0 11.703,175.28 128.477,176.57 l -26.152,98.91"
         style="fill:#80210e;fill-opacity:1;fill-rule:nonzero;stroke:none"
         id="path1491" />
      <path
         d="m 690.543,3143.92 c 0,0 -155.77,25.8 -135.508,252.68 0,0 5.965,259.44 87.742,300.45 l 13.547,-97.93 c 0,0 -61.793,-188.7 34.219,-455.2"
         style="fill:#80210e;fill-opacity:1;fill-rule:nonzero;stroke:none"
         id="path1493" />
      <path
         d="m 968.16,3143.92 c 0,0 155.76,25.8 135.51,252.68 0,0 -5.98,259.44 -87.75,300.45 l -27.936,-89.26 c 0,0 50.926,-315.01 -19.824,-463.87"
         style="fill:#80210e;fill-opacity:1;fill-rule:nonzero;stroke:none"
         id="path1495" />
      <path
         d="m 746.785,3759.57 c -6.812,-16.82 2.07,-41.97 3.953,-60.57 7.707,2.93 8.825,13.4 16.356,18.03 5.902,-11.51 10.109,-24.67 16.441,-36.56 10.348,-19.42 29.524,-52.91 48.059,-64.81 5.261,7.15 3.312,16.43 3.969,25.5 12.472,-15.66 26.781,-34.05 41.621,-47.15 -0.7,5.01 1.207,11.18 0.636,16.24 19.282,-10.37 32.313,-36.81 52.848,-43.84 -0.824,5.31 2.086,9.72 2.512,14.37 13.125,-8.96 26.215,-24.59 39.715,-30.74 7.398,-3.36 21.933,-1.66 28.125,-8.96 -0.1,12.64 -2.637,32.54 -12.704,39.7 -0.046,-3.47 -1.769,-7.35 -2.086,-9.35 -4.128,5.8 -8.941,14.25 -14.449,18.57 -0.203,-2.35 -0.433,-4.77 -0.633,-7.12 -0.957,1.99 -5.753,7.26 -7.089,10.39 -0.411,-2.24 -1.836,-5.4 -2.125,-8.5 -6.512,6.61 -10.532,20.79 -21.95,21.74 -0.242,-2.72 -3.171,-10.68 -3.058,-12.58 -2.238,10.54 -9.11,24.84 -20.836,25.54 -0.387,-2.54 -3.399,-7.97 -3.555,-9.85 -0.91,5.7 -4.93,9.83 -6.91,14.82 -1.531,-1.06 -2.617,-2.36 -4.156,-3.44 -6.582,13.17 -5.196,31.23 -12.918,43.25 -2.571,-5.09 -3.957,-12 -3.649,-18.29 -0.757,5.71 -3.652,12.08 -7.359,16.31 -0.789,-2.11 -4.633,-6.53 -5.531,-9.14 -3.922,8.12 -11.684,31.81 -16.93,10.69 -2.633,4.45 -5.492,10.82 -7.41,16.49 -1.449,-3.51 -7.395,-9.74 -8.809,-12.81 -3.039,9.46 -9.406,26.32 -18.004,12.98 -1.363,7.54 -3.664,15.33 -9.25,20.07 0.317,-5.44 -1,-12.53 -1.8,-16.47 -0.243,10.43 -2.911,21.02 -9.649,28.93 -0.633,-3.78 -2.558,-8.62 -1.805,-13.74 0.528,9.64 -1.128,18.71 -6.015,27.03 -1.438,-0.41 -1.106,-2.51 -1.348,-2.61 -0.875,15.41 -9.351,22.11 -16.48,31.97 -2.149,-0.41 -3.59,-1.07 -5.664,-1.43 -1.578,3.9 -5.121,5.9 -6.91,8.93 -0.489,-4.81 -2.797,-9.35 -2.676,-14.09 -1.723,7.5 -5.59,11.52 -12.477,8.65"
         style="fill:#952711;fill-opacity:1;fill-rule:nonzero;stroke:none"
         id="path1497" />
      <path
         d="m 715.484,3711.7 c -4.023,-7.76 3.356,-25.63 7.5,-34.35 -1.379,7.01 -5.953,11.88 -12.754,11.99 0.29,-4.27 -1.328,-9.61 -0.175,-13.92 -2.559,6.61 -5.602,5.51 -9.391,8.46 -1.684,-5.23 -2.426,-11.92 -2.035,-17.95 -3.703,1.63 -11.285,2.62 -14.582,5.05 -2.149,-6.13 -1.356,-13.51 -3.52,-19.63 -2.5,3.05 -5.285,3.33 -7.129,4.84 1.832,-10.31 -5.546,-11.39 -7.679,-16.23 -3.321,-7.51 -7.074,-16.81 -9.582,-25.86 -2.293,4.95 -6.594,9.69 -9.285,14.6 -2.043,-8.79 -3.633,-20.68 -3.497,-30.51 -0.91,0.64 -1.917,1.01 -3.019,1.08 -0.981,-6.63 -2.57,-13.33 -3.992,-19.75 -0.852,4.08 -3.043,8.04 -3.828,12.03 -0.871,-7.65 -2.094,-15.59 -2.106,-23.31 -1.918,1.55 -5.113,2.31 -6.695,3.29 -1.418,-6.68 -2.176,-13.39 -2.156,-20.33 0.035,-1.37 0.074,-1.32 0.101,0.18 0.16,1.42 -0.347,2.03 -1.527,1.8 -0.156,-5.12 -2.688,-10.77 -3.551,-14.54 -5.32,9.16 -9.102,19.1 -12.051,29.18 l -1.48,-0.89 c -0.625,5.56 -0.086,12.02 0.371,17.51 1.859,-0.24 3.098,-1.16 4.933,-1.48 2.11,6.18 2.801,12.59 2.153,19.15 0.121,-3 1.168,-6.75 1.433,-8.14 -0.539,4.86 1.95,9.59 2.579,14.35 2.433,-1.09 8.07,-0.35 10.445,-1.35 -0.68,9.41 1.844,18.41 4.371,27.24 0.945,-1.4 4.242,-3.97 5.16,-5.21 0.891,3 1.719,5.36 2.164,8.85 l 2.852,-1.49 c 1.172,5.83 3.41,12.09 5.996,16.66 1.594,-2.93 7.152,-6.58 8.746,-9.36 1.851,7.27 2.469,14.25 4.601,21.45 0.747,-1.48 0.985,-3.45 1.829,-4.85 2.066,6.14 4.312,15.28 8.668,21.78 1.992,-0.29 3.343,-0.97 5.25,-1.48 1.226,4.51 6.089,7.67 7.64,11.14 1.828,-1.52 6.024,-2.54 7.547,-3.81 1.289,4.16 5.996,8.46 7.281,12.58 1.953,0.08 1.582,-1.38 3.266,-1.46 1.312,4.92 3.922,4.81 7.777,7.17"
         style="fill:#952711;fill-opacity:1;fill-rule:nonzero;stroke:none"
         id="path1499" />
    </g>
  </g>
</svg>
